<svg width="1037" height="647" viewBox="0 0 1037 647" fill="none" xmlns="http://www.w3.org/2000/svg">
<path d="M892.099 18.2703H689.75V339.108H892.099V18.2703Z" fill="#DBDBDB"/>
<path d="M786.225 31.1226H700.779V173.829H786.225V31.1226Z" fill="white"/>
<path d="M881.072 31.1226H795.627V173.829H881.072V31.1226Z" fill="white"/>
<path d="M786.225 183.55H700.779V326.256H786.225V183.55Z" fill="white"/>
<path d="M881.072 183.55H795.627V326.256H881.072V183.55Z" fill="white"/>
<path d="M737.683 18.2703H689.75V477.284H737.683V18.2703Z" fill="#EBEBEB"/>
<path d="M728.589 40.0873L728.954 89.7168L729.091 139.346L729.349 238.605L729.091 337.864L728.954 387.494L728.589 437.123L728.224 387.494L728.087 337.864L727.828 238.605L728.087 139.346L728.224 89.7168L728.589 40.0873Z" fill="white"/>
<path d="M706.579 51.6025L706.959 95.9152L707.172 140.228L707.34 228.853L707.172 317.494L706.959 361.807L706.579 406.119L706.214 361.807L706.001 317.494L705.818 228.853L706.001 140.228L706.214 95.9152L706.579 51.6025Z" fill="white"/>
<path d="M717.589 62.0638L717.954 113.958L718.091 165.837L718.349 269.627L718.091 373.4L717.954 425.295L717.589 477.174L717.208 425.295L717.072 373.4L716.828 269.627L717.087 165.837L717.208 113.958L717.589 62.0638Z" fill="white"/>
<path d="M698.391 42.7147L698.772 97.0161L698.893 151.318L699.152 259.936L698.909 368.555L698.772 422.872L698.391 477.173L698.026 422.872L697.889 368.555L697.631 259.936L697.889 151.318L698.026 97.0161L698.391 42.7147Z" fill="white"/>
<path d="M844.153 477.285H892.086V18.2708H844.153V477.285Z" fill="#EBEBEB"/>
<path d="M853.251 40.0873L853.631 89.7168L853.753 139.346L854.011 238.605L853.768 337.864L853.631 387.494L853.251 437.123L852.886 387.494L852.749 337.864L852.49 238.605L852.749 139.346L852.886 89.7168L853.251 40.0873Z" fill="white"/>
<path d="M875.261 51.6025L875.626 95.9152L875.839 140.228L876.021 228.853L875.839 317.494L875.626 361.807L875.261 406.119L874.896 361.807L874.683 317.494L874.5 228.853L874.683 140.228L874.896 95.9152L875.261 51.6025Z" fill="white"/>
<path d="M864.265 62.0638L864.63 113.958L864.767 165.837L865.025 269.627L864.767 373.4L864.63 425.295L864.265 477.174L863.884 425.295L863.747 373.4L863.504 269.627L863.747 165.837L863.884 113.958L864.265 62.0638Z" fill="white"/>
<path d="M883.444 42.7147L883.809 97.0161L883.946 151.318L884.205 259.936L883.946 368.555L883.809 422.872L883.444 477.173L883.079 422.872L882.942 368.555L882.684 259.936L882.942 151.318L883.079 97.0161L883.444 42.7147Z" fill="white"/>
<path d="M346.741 18.2703H144.393V339.108H346.741V18.2703Z" fill="#DBDBDB"/>
<path d="M240.848 31.1226H155.402V173.829H240.848V31.1226Z" fill="white"/>
<path d="M335.695 31.1226H250.25V173.829H335.695V31.1226Z" fill="white"/>
<path d="M240.848 183.55H155.402V326.256H240.848V183.55Z" fill="white"/>
<path d="M335.695 183.55H250.25V326.256H335.695V183.55Z" fill="white"/>
<path d="M192.325 18.2703H144.393V477.284H192.325V18.2703Z" fill="#EBEBEB"/>
<path d="M183.227 40.0873L183.592 89.7168L183.729 139.346L183.988 238.605L183.729 337.864L183.592 387.494L183.227 437.123L182.847 387.494L182.725 337.864L182.467 238.605L182.725 139.346L182.847 89.7168L183.227 40.0873Z" fill="white"/>
<path d="M161.216 51.6025L161.581 95.9152L161.794 140.228L161.976 228.853L161.809 317.494L161.581 361.807L161.216 406.119L160.851 361.807L160.638 317.494L160.455 228.853L160.638 140.228L160.851 95.9152L161.216 51.6025Z" fill="white"/>
<path d="M172.212 62.0638L172.592 113.958L172.729 165.837L172.972 269.627L172.729 373.4L172.592 425.295L172.212 477.174L171.847 425.295L171.71 373.4L171.451 269.627L171.71 165.837L171.847 113.958L172.212 62.0638Z" fill="white"/>
<path d="M153.028 42.7147L153.393 97.0161L153.53 151.318L153.789 259.936L153.53 368.555L153.393 422.872L153.028 477.173L152.663 422.872L152.526 368.555L152.268 259.936L152.526 151.318L152.663 97.0161L153.028 42.7147Z" fill="white"/>
<path d="M298.79 477.285H346.723L346.723 18.2708H298.79L298.79 477.285Z" fill="#EBEBEB"/>
<path d="M307.888 40.0873L308.253 89.7168L308.39 139.346L308.648 238.605L308.39 337.864L308.253 387.494L307.888 437.123L307.507 387.494L307.386 337.864L307.127 238.605L307.386 139.346L307.522 89.7168L307.888 40.0873Z" fill="white"/>
<path d="M329.897 51.6025L330.262 95.9152L330.475 140.228L330.658 228.853L330.475 317.494L330.262 361.807L329.897 406.119L329.517 361.807L329.304 317.494L329.137 228.853L329.304 140.228L329.517 95.9152L329.897 51.6025Z" fill="white"/>
<path d="M318.888 62.0638L319.268 113.958L319.39 165.837L319.648 269.627L319.39 373.4L319.268 425.295L318.888 477.174L318.522 425.295L318.386 373.4L318.127 269.627L318.386 165.837L318.522 113.958L318.888 62.0638Z" fill="white"/>
<path d="M338.087 42.7147L338.452 97.0161L338.589 151.318L338.832 259.936L338.589 368.555L338.452 422.872L338.087 477.173L337.706 422.872L337.57 368.555L337.326 259.936L337.585 151.318L337.706 97.0161L338.087 42.7147Z" fill="white"/>
<path d="M110.621 411.625H70.3398V429.227H110.621V411.625Z" fill="#EBEBEB"/>
<path d="M88.1522 433.821H47.8711V451.424H88.1522V433.821Z" fill="#EBEBEB"/>
<path d="M576.135 174.269H535.854V191.871H576.135V174.269Z" fill="#EBEBEB"/>
<path d="M553.666 196.465H513.385V214.067H553.666V196.465Z" fill="#EBEBEB"/>
<path d="M531.275 174.269H490.994V191.871H531.275V174.269Z" fill="#EBEBEB"/>
<path d="M988.603 433.821H948.322V451.424H988.603V433.821Z" fill="#EBEBEB"/>
<path d="M966.137 35.5733H925.855V53.1756H966.137V35.5733Z" fill="#EBEBEB"/>
<path d="M988.603 57.7697H948.322V75.3721H988.603V57.7697Z" fill="#EBEBEB"/>
<path d="M110.621 35.5733H70.3398V53.1756H110.621V35.5733Z" fill="#EBEBEB"/>
<path d="M412 0H410V68H412V0Z" fill="#C7C7C7"/>
<path d="M455.474 111.882L451.914 119.968H370.531L366.986 111.882L401.624 87.0753H420.821L455.474 111.882Z" fill="#EBEBEB"/>
<path d="M423.223 63.1805L420.82 87.075H401.622L399.219 63.1805H423.223Z" fill="#DBDBDB"/>
<path d="M455.475 111.882L451.916 119.967H370.532L366.973 111.882H455.475Z" fill="#DBDBDB"/>
<path d="M519 0H517V42H519V0Z" fill="#C7C7C7"/>
<path d="M562.491 85.7689L558.932 93.87H477.548L473.988 85.7689L508.641 60.9777H527.838L562.491 85.7689Z" fill="#EBEBEB"/>
<path d="M530.241 37.084L527.837 60.9785H508.64L506.236 37.084H530.241Z" fill="#DBDBDB"/>
<path d="M562.491 85.7856L558.932 93.8711H477.533L473.988 85.7856H562.491Z" fill="#DBDBDB"/>
<path d="M626 0H624V16H626V0Z" fill="#C7C7C7"/>
<path d="M669.505 59.673L665.945 67.7742H584.562L581.002 59.673L615.655 34.8818H634.852L669.505 59.673Z" fill="#EBEBEB"/>
<path d="M637.256 10.987L634.853 34.8815H615.655L613.252 10.987H637.256Z" fill="#DBDBDB"/>
<path d="M669.49 59.6734L665.945 67.7745H584.546L581.002 59.6734H669.49Z" fill="#DBDBDB"/>
<path d="M518.239 647C776.529 647 985.914 633.386 985.914 616.593C985.914 599.8 776.529 586.186 518.239 586.186C259.95 586.186 50.5645 599.8 50.5645 616.593C50.5645 633.386 259.95 647 518.239 647Z" fill="#EBEBEB"/>
<path d="M962.428 355.028C961.271 363.326 961.684 371.778 963.645 379.913C964.571 383.684 965.802 387.367 967.326 390.925C969.243 395.471 971.251 399.922 970.764 404.909C970.292 405.224 971.889 405.176 971.95 404.689C984.82 397.107 1001.32 395.722 1011.24 383.327C1015.93 377.459 1018.3 370.019 1019.41 362.578C1020.64 354.477 1020.93 345.511 1018.96 337.536C1017.25 330.771 1013.43 324.259 1007.3 320.956C1001.17 317.652 992.669 317.81 986.006 319.965C971.555 324.542 964.39 340.634 962.428 355.028Z" fill="#C53F3F"/>
<path d="M955.735 453.531C957.5 447.475 959.249 441.419 961.059 435.378C964.589 423.533 968.255 411.783 972.332 400.095C974.765 393.121 977.331 386.21 980.029 379.362C979.739 375.049 979.232 370.754 978.508 366.495C977.428 361.335 975.876 356.349 974.416 351.299C974.324 350.985 974.811 350.827 974.933 351.126C977.823 358.079 981.596 366.982 981.687 375.225C984.841 367.486 988.213 359.851 991.803 352.322C992.223 345.963 992.034 339.577 991.24 333.256C991.238 333.2 991.255 333.145 991.288 333.101C991.321 333.057 991.369 333.026 991.422 333.015C991.475 333.004 991.53 333.012 991.577 333.039C991.625 333.066 991.662 333.11 991.681 333.162C992.773 338.697 993.197 344.351 992.944 349.994C995.702 344.352 998.628 338.778 1001.72 333.272C1001.99 332.785 1002.66 333.272 1002.42 333.776C997.583 343.403 993.096 353.25 988.882 363.207C994.809 357.893 1001.66 353.794 1009.07 351.126C1009.39 351 1009.63 351.488 1009.3 351.63C1001.21 355.221 993.821 360.283 987.467 366.573C984.425 373.914 981.54 381.255 978.812 388.596C986.874 380.432 997.888 375.052 1008.55 372.174C1008.92 372.079 1009.02 372.645 1008.67 372.756C996.336 376.594 986.737 383.767 977.351 392.529C976.271 395.517 975.191 398.522 974.142 401.526C970.177 412.947 966.394 424.425 962.794 435.96C961.059 441.497 959.356 447.04 957.682 452.587C955.872 458.549 954.473 464.857 952.13 470.63C951.902 471.181 950.944 471.055 951.065 470.394C952.349 464.696 953.908 459.068 955.735 453.531Z" fill="#263238"/>
<path d="M977.091 343.418C979.382 347.05 980.958 351.112 981.731 355.373C981.731 355.484 981.579 355.546 981.548 355.373C980.115 351.354 978.433 347.435 976.513 343.639C976.331 343.261 976.878 343.025 977.091 343.418Z" fill="#263238"/>
<path d="M1000.06 371.104C1003.65 369.059 1007.56 367.695 1011.61 367.077C1011.71 367.077 1011.79 367.235 1011.61 367.282C1009.74 368.069 1007.79 368.635 1005.92 369.374C1004.05 370.113 1002.18 371.042 1000.27 371.718C1000.21 371.718 1000.14 371.696 1000.08 371.655C1000.03 371.614 999.983 371.556 999.959 371.489C999.936 371.422 999.933 371.349 999.951 371.28C999.97 371.211 1000.01 371.15 1000.06 371.104Z" fill="#263238"/>
<path d="M1006.54 337.74C1007.71 336.827 1008.95 336.032 1010.27 335.364C1010.31 335.335 1010.36 335.325 1010.42 335.337C1010.47 335.349 1010.51 335.381 1010.54 335.427C1010.57 335.473 1010.58 335.529 1010.57 335.582C1010.56 335.635 1010.52 335.681 1010.48 335.71C1009.33 336.644 1008.11 337.465 1006.81 338.164C1006.54 338.306 1006.3 337.897 1006.54 337.74Z" fill="#263238"/>
<path d="M918.95 400.237C928.214 403.084 937.539 405.711 946.803 408.527C947.61 408.779 963.293 377.727 957.619 361.713C954.916 354.469 950.686 347.939 945.237 342.598C939.787 337.256 933.255 333.238 926.115 330.834C919.483 328.522 911.344 326.556 904.347 328.16C898.14 329.576 893.699 334.846 891.721 340.886C888.968 349.113 889.88 358.913 891.386 367.313C892.569 375.194 895.714 382.621 900.513 388.864C905.427 394.873 911.725 398.019 918.95 400.237Z" fill="#C53F3F"/>
<path d="M905.504 370.727C911.367 373.679 917.445 376.151 923.682 378.12C927.855 379.279 931.926 380.8 935.852 382.666C931.943 373.637 927.638 364.796 923.074 356.035C917.08 354.241 910.783 351.457 906.265 347.068C906.021 346.832 906.341 346.47 906.615 346.659C911.543 350.277 917.004 352.448 922.465 354.886C921.228 352.527 919.981 350.172 918.723 347.823C918.358 347.178 919.241 346.518 919.651 347.163C924.527 354.48 928.932 362.121 932.84 370.035C933.832 363.095 934.148 356.071 933.783 349.066C933.783 349.028 933.798 348.992 933.823 348.966C933.849 348.939 933.884 348.924 933.92 348.924C933.956 348.924 933.991 348.939 934.017 348.966C934.043 348.992 934.057 349.028 934.057 349.066C935.213 356.708 935.136 364.495 933.829 372.111C937.084 378.812 940.035 385.686 942.697 392.655C943.762 388.471 945.131 384.349 946.059 380.071C947.455 374.033 947.902 367.803 947.383 361.619C947.383 361.43 947.626 361.43 947.656 361.619C949.292 373.065 947.948 384.756 943.762 395.486C945.283 399.687 946.804 403.887 948.143 408.071C955.129 429.57 959.269 451.948 960.45 474.595C960.432 474.688 960.383 474.771 960.313 474.831C960.242 474.891 960.153 474.924 960.062 474.924C959.97 474.924 959.882 474.891 959.811 474.831C959.74 474.771 959.692 474.688 959.674 474.595C957.246 452.252 952.613 430.224 945.846 408.857C943.154 400.489 940.066 392.372 936.719 384.412C931.243 382.745 925.782 380.464 920.412 378.545C915.028 376.868 909.946 374.291 905.367 370.916C905.366 370.873 905.379 370.831 905.404 370.796C905.429 370.762 905.464 370.737 905.504 370.727Z" fill="#263238"/>
<path d="M896.863 361.697C902.522 363.79 907.907 366.7 913.596 368.823C913.87 368.918 913.703 369.358 913.444 369.295C907.451 368.021 901.503 366.149 896.711 362.028C896.453 361.87 896.666 361.619 896.863 361.697Z" fill="#263238"/>
<path d="M943.169 349.05C943.093 348.735 943.534 348.562 943.625 348.877C945.146 354.288 946.257 360.014 944.736 365.535C944.736 365.756 944.355 365.771 944.34 365.535C944.066 359.951 944.371 354.54 943.169 349.05Z" fill="#263238"/>
<path d="M919.726 336.56C921.539 339.241 922.409 342.483 922.19 345.747C922.19 345.951 921.855 346.077 921.81 345.747C921.11 342.601 919.969 339.848 919.041 336.843C919.04 336.761 919.064 336.68 919.108 336.612C919.152 336.543 919.216 336.49 919.29 336.459C919.364 336.429 919.445 336.422 919.523 336.44C919.601 336.458 919.671 336.5 919.726 336.56Z" fill="#263238"/>
<path d="M1029.24 413.938C1026.51 422.857 1020.11 435.19 1009.83 435.284C1003.19 435.284 996.517 434.545 989.869 434.451C982.75 434.325 975.616 434.341 968.572 434.781C967.979 434.781 969.424 412.758 986.523 401.999C991.314 398.979 997.171 398.035 1002.62 396.808C1008.84 395.288 1015.23 394.6 1021.63 394.763C1025.56 394.92 1028.83 395.785 1030.23 399.954C1031.63 404.122 1030.55 409.691 1029.24 413.938Z" fill="#C53F3F"/>
<path d="M1021.87 402.769C1017.72 403.886 1013.52 405.145 1009.35 406.513C1010.44 405.292 1011.59 404.131 1012.79 403.037C1014.59 401.464 1016.57 400.268 1018.48 398.916C1018.65 398.805 1018.48 398.491 1018.34 398.569C1014.3 400.304 1010.8 403.182 1008.26 406.875C1003.06 408.605 997.9 410.525 992.941 412.632C989.519 414.084 986.239 415.869 983.145 417.965C984.14 415.732 985.326 413.594 986.689 411.578C988.955 408.543 992.028 406.859 995.01 404.689C995.053 404.644 995.081 404.586 995.089 404.523C995.097 404.46 995.084 404.396 995.052 404.341C995.021 404.287 994.972 404.245 994.915 404.222C994.858 404.2 994.795 404.198 994.736 404.217C991.628 405.612 988.836 407.664 986.538 410.24C984.241 412.816 982.489 415.86 981.395 419.176C977.835 421.819 974.578 424.875 971.69 428.284C960.372 441.576 951.458 459.273 951.428 477.316C951.428 477.756 952.097 477.867 952.173 477.426C955.076 459.73 962.532 443.169 973.759 429.48C974.565 428.504 975.402 427.576 976.254 426.664C979.356 426.238 982.48 426.002 985.609 425.956C989.244 425.956 992.85 426.507 996.485 426.806C1002.45 427.309 1009.07 427.388 1014.45 424.273C1014.5 424.241 1014.54 424.191 1014.56 424.133C1014.58 424.074 1014.57 424.01 1014.55 423.954C1014.52 423.898 1014.48 423.853 1014.43 423.827C1014.37 423.802 1014.31 423.798 1014.25 423.817C1002.25 428.331 989.655 422.606 977.607 425.295C982.751 420.227 988.774 416.208 995.36 413.45L996.47 412.994C1004.18 413.954 1012.32 416.03 1019.82 413.45C1020.05 413.45 1019.96 413.01 1019.73 413.073C1012.47 414.945 1005.52 412.601 998.432 412.223C1006.22 409.077 1014.18 406.576 1022 403.462C1022.57 403.194 1022.59 402.581 1021.87 402.769Z" fill="#263238"/>
<path d="M1025.28 410.619C1021.56 411.124 1017.81 411.418 1014.05 411.5C1013.98 411.5 1013.95 411.641 1014.05 411.657C1017.83 412.38 1021.72 412.126 1025.37 410.918C1025.41 410.903 1025.43 410.874 1025.45 410.839C1025.47 410.803 1025.47 410.762 1025.46 410.725C1025.45 410.687 1025.42 410.656 1025.39 410.636C1025.36 410.616 1025.32 410.61 1025.28 410.619Z" fill="#263238"/>
<path d="M999.939 402.975C997.865 403.932 995.982 405.282 994.386 406.954C994.189 407.143 994.386 407.505 994.675 407.348C995.603 406.624 996.577 405.963 997.551 405.318C998.489 404.787 999.394 404.193 1000.26 403.541C1000.3 403.486 1000.33 403.418 1000.34 403.346C1000.35 403.274 1000.33 403.202 1000.29 403.139C1000.26 403.077 1000.21 403.027 1000.14 402.998C1000.08 402.968 1000.01 402.96 999.939 402.975Z" fill="#263238"/>
<path d="M939.609 431.698C939.73 431.981 939.32 432.264 939.168 431.949C939.137 431.999 939.097 432.041 939.05 432.073C939.003 432.106 938.95 432.128 938.894 432.138C932.014 433.836 925.038 435.092 918.008 435.898C912.349 436.417 905.838 436.747 900.879 433.35C894.171 428.756 889.744 416.455 893.38 408.637C897.669 399.356 910.6 404.39 917.095 407.693C927.08 412.73 935.045 421.223 939.609 431.698Z" fill="#C53F3F"/>
<path d="M944.553 435.977C940.758 432.207 936.545 428.912 932.003 426.162C928.76 420.832 924.449 416.283 919.362 412.822C919.104 412.649 918.906 413.042 919.119 413.231C923.159 416.579 926.741 420.479 929.767 424.825C924.731 421.977 919.499 419.517 914.114 417.463C912.188 413.775 909.265 410.747 905.702 408.748C905.702 408.748 905.55 408.748 905.702 408.874C908.647 411.184 911.214 413.967 913.308 417.117C910.129 415.89 906.919 414.741 903.709 413.64C903.405 413.546 903.298 414.002 903.572 414.112C909.292 416.409 915.133 418.831 920.807 421.663C913.894 422.803 906.85 422.803 899.936 421.663C899.754 421.663 899.663 421.914 899.936 421.962C907.145 424.169 914.8 424.289 922.07 422.308C925.679 424.126 929.184 426.159 932.566 428.395C929.718 428.154 926.851 428.393 924.078 429.103C919.192 430.289 914.188 430.875 909.17 430.849C908.988 430.849 908.927 431.164 909.17 431.195C917.826 432.768 925.994 428.678 934.574 429.732C937.757 431.971 940.744 434.492 943.503 437.267C948.771 442.799 953.11 449.2 956.342 456.207C959.947 463.805 961.91 471.859 964.815 479.708C964.835 479.781 964.883 479.843 964.947 479.88C965.011 479.916 965.087 479.925 965.158 479.905C965.228 479.884 965.288 479.835 965.324 479.768C965.359 479.702 965.368 479.624 965.348 479.551C962.899 464.072 955.445 447.02 944.553 435.977Z" fill="#263238"/>
<path d="M918.465 414.757C917.889 413.705 917.137 412.767 916.244 411.988C915.524 411.163 914.656 410.489 913.688 410.006C913.612 410.006 913.566 410.1 913.612 410.163C914.327 410.997 915.301 411.595 916.076 412.397C916.852 413.199 917.476 414.143 918.267 414.93C918.312 415.04 918.525 414.898 918.465 414.757Z" fill="#263238"/>
<path d="M904.192 419.57C902.915 419.24 901.561 419.256 900.253 418.988C898.96 418.661 897.685 418.262 896.434 417.793C896.396 417.776 896.353 417.776 896.314 417.792C896.276 417.808 896.245 417.84 896.229 417.879C896.213 417.919 896.213 417.964 896.228 418.003C896.244 418.043 896.274 418.075 896.313 418.092C898.669 419.595 901.437 420.258 904.192 419.979C904.405 419.948 904.39 419.618 904.192 419.57Z" fill="#263238"/>
<path d="M980.193 460.485L979.052 473.809L975.204 518.829H941.114L936.292 473.809L934.877 460.485H980.193Z" fill="#455A64"/>
<path d="M980.193 460.485L979.052 473.809H936.292L934.877 460.485H980.193Z" fill="#263238"/>
<path d="M983.568 456.851H931.498V467.673H983.568V456.851Z" fill="#455A64"/>
<path d="M0 518.986L129.56 518.608L259.12 518.467L518.239 518.199L777.359 518.467L906.918 518.608L1036.48 518.986L906.918 519.379L777.359 519.505L518.239 519.772L259.12 519.505L129.56 519.363L0 518.986Z" fill="#263238"/>
<path d="M936.569 496.758L960.467 543.305C963.372 552.932 965.73 561.426 966.552 565.941C966.559 565.966 966.559 565.994 966.552 566.019C966.852 567.038 966.925 568.114 966.765 569.165C964.498 572.123 890.736 598.251 887.891 598.251C885.046 598.251 884.742 589.819 886.826 586.437C888.91 583.055 912.823 559.979 912.823 559.979L887.07 514.156L936.569 496.758Z" fill="#D3766A"/>
<path d="M887.89 598.251C890.75 598.251 964.512 572.06 966.703 569.228C966.854 568.176 966.781 567.102 966.49 566.082C965.653 561.568 963.28 553.058 960.405 543.431C959.132 540.308 957.605 537.304 955.841 534.448L907.498 551.296L912.852 560.168C912.852 560.168 888.955 583.244 886.855 586.626C884.756 590.008 884.999 598.345 887.89 598.251Z" fill="#EBEBEB"/>
<path d="M887.892 598.251C890.767 598.251 964.515 572.075 966.705 569.228C967.557 568.158 964.499 556.833 960.423 543.241L960.286 542.817L912.52 559.145L912.825 559.979C912.825 559.979 888.927 583.055 886.827 586.437C884.728 589.819 885.002 598.345 887.892 598.251Z" fill="#C53F3F"/>
<path d="M887.722 595.105C900.059 590.386 950.213 572.516 962.732 568.819C962.839 568.819 962.869 568.819 962.732 568.898C950.563 573.853 900.363 591.298 887.768 595.325C887.524 595.357 887.464 595.105 887.722 595.105Z" fill="#263238"/>
<path d="M908.853 561.615C913.416 558.925 919.683 557.588 924.612 559.853C924.795 559.948 924.612 560.231 924.506 560.231C919.309 560.327 914.138 561.002 909.081 562.244C909.006 562.254 908.931 562.237 908.867 562.196C908.804 562.156 908.755 562.095 908.728 562.022C908.702 561.95 908.7 561.87 908.723 561.797C908.745 561.723 908.791 561.659 908.853 561.615Z" fill="#263238"/>
<path d="M906.056 565.06C910.619 562.386 916.871 561.033 921.815 563.314C921.998 563.408 921.815 563.676 921.709 563.691C916.513 563.79 911.343 564.46 906.284 565.689C906.21 565.698 906.134 565.681 906.071 565.641C906.007 565.601 905.958 565.539 905.931 565.467C905.905 565.395 905.903 565.315 905.926 565.241C905.948 565.168 905.994 565.104 906.056 565.06Z" fill="#263238"/>
<path d="M903.253 568.519C907.817 565.83 914.069 564.492 919.013 566.773C919.195 566.852 919.013 567.135 918.891 567.135C913.7 567.24 908.534 567.915 903.481 569.149C903.407 569.158 903.332 569.141 903.268 569.1C903.204 569.06 903.155 568.999 903.129 568.927C903.102 568.854 903.1 568.775 903.123 568.701C903.145 568.627 903.191 568.563 903.253 568.519Z" fill="#263238"/>
<path opacity="0.1" d="M887.892 598.251C889.063 598.251 902.084 593.863 917.236 588.498L907.956 564.714C900.852 571.651 888.318 584.031 886.827 586.438C884.743 589.867 885.002 598.346 887.892 598.251Z" fill="black"/>
<path d="M951.78 529.241L904.471 544.563C904.471 544.563 847.457 449.897 848.613 425.326C850.134 391.396 888.696 287.213 888.696 287.213H934.758C934.758 287.213 904.182 399.874 903.787 418.83C903.635 428.755 951.78 529.241 951.78 529.241Z" fill="#D3766A"/>
<path d="M888.742 287.213H934.804L905.186 415.479L848.902 409.737C848.902 409.737 869.408 330.393 888.742 287.213Z" fill="#37474F"/>
<path d="M855.445 398.286C858.64 398.286 886.067 400.74 905.979 404.074C906.116 404.074 906.071 404.295 905.979 404.279C899.393 404.09 859.096 399.403 855.476 398.522C855.324 398.474 855.308 398.286 855.445 398.286Z" fill="#263238"/>
<path d="M893.428 287.165C893.626 288.141 905.111 335.096 906.541 335.93C907.971 336.763 864.814 397.278 859.658 426.867C856.372 445.744 851.078 555.715 851.078 555.715H901.582C901.582 555.715 909.492 462.465 911.302 431.555C912.002 419.568 957.181 368.098 960.893 328.521C961.988 316.849 952.846 287.055 952.846 287.055L893.428 287.165Z" fill="#D3766A"/>
<path d="M886.92 368.319C880.408 378.664 874.471 389.383 869.137 400.425C866.505 405.71 863.661 411.011 861.531 416.548C859.652 421.95 858.535 427.602 858.215 433.333C857.621 440.191 857.196 447.113 857.059 454.018C857.059 454.176 857.317 454.223 857.348 454.018C858.245 447.978 858.869 441.89 859.447 435.802C859.834 430.059 860.854 424.38 862.489 418.877C863.485 416.104 864.659 413.402 866.003 410.791C867.322 408.064 868.655 405.348 870.004 402.643C872.671 397.326 875.369 392.04 878.097 386.786C881.24 380.746 884.283 374.643 887.224 368.476C887.221 368.441 887.21 368.407 887.191 368.377C887.172 368.348 887.146 368.324 887.115 368.308C887.084 368.292 887.05 368.285 887.016 368.287C886.982 368.289 886.948 368.3 886.92 368.319Z" fill="#263238"/>
<path d="M910.996 430.281C909.247 444.58 908.106 458.974 906.935 473.336C905.764 487.697 904.592 502.122 903.619 516.531C903.056 524.648 902.828 533.929 902.523 542.078C902.523 542.314 902.889 542.361 902.919 542.078C904.623 527.763 905.475 512.19 906.661 497.875C907.848 483.56 908.791 469.073 909.825 454.679C910.403 446.547 910.92 438.414 911.194 430.266C911.194 430.187 911.012 430.171 910.996 430.281Z" fill="#263238"/>
<path d="M893.43 287.166C892.229 284.932 898.07 321.773 905.6 335.741C905.98 336.433 866.429 400.236 863.889 406.135L916.309 426.789C916.309 426.789 962.127 352.683 963.222 330.125C964.318 307.568 952.894 287.197 952.894 287.197L893.43 287.166Z" fill="#37474F"/>
<path d="M872.466 396.791C875.508 397.562 901.551 406.968 920.048 415.274C920.068 415.282 920.085 415.296 920.097 415.315C920.109 415.333 920.115 415.354 920.115 415.376C920.115 415.398 920.109 415.42 920.097 415.438C920.085 415.456 920.068 415.47 920.048 415.478C913.705 413.591 875.767 398.804 872.481 397.027C872.298 396.901 872.313 396.759 872.466 396.791Z" fill="#263238"/>
<path d="M899.329 332.721C904.975 334.85 910.431 337.481 915.636 340.586C915.681 340.607 915.715 340.645 915.732 340.692C915.749 340.74 915.748 340.792 915.727 340.838C915.707 340.884 915.67 340.919 915.625 340.937C915.579 340.955 915.528 340.953 915.484 340.932C909.993 338.494 904.395 336.213 899.04 333.413C898.956 333.37 898.892 333.295 898.86 333.205C898.828 333.114 898.831 333.014 898.868 332.926C898.905 332.837 898.973 332.766 899.059 332.728C899.145 332.69 899.241 332.688 899.329 332.721Z" fill="#263238"/>
<path d="M897.672 293.82C897.672 293.615 898.022 293.568 898.022 293.82C898.024 300.161 898.334 306.498 898.95 312.806C899.209 315.732 901.475 331.903 906.388 330.723C907.21 330.519 907.621 329.685 907.758 328.411C907.734 326.733 907.515 325.064 907.104 323.44C906.556 320.063 906.135 316.666 905.841 313.247C905.275 306.881 905.341 300.471 906.039 294.119C906.031 294.093 906.029 294.065 906.033 294.039C906.038 294.012 906.048 293.986 906.064 293.965C906.079 293.943 906.099 293.925 906.123 293.913C906.146 293.9 906.172 293.894 906.198 293.894C906.225 293.894 906.251 293.9 906.274 293.913C906.297 293.925 906.318 293.943 906.333 293.965C906.349 293.986 906.359 294.012 906.363 294.039C906.368 294.065 906.366 294.093 906.358 294.119C906.218 302.95 906.726 311.779 907.879 320.53C908.503 324.73 910.541 331.069 906.358 331.714C902.175 332.359 899.209 321.757 898.752 318.863C897.35 310.598 896.987 302.181 897.672 293.82Z" fill="#263238"/>
<path d="M906.252 331.117C906.692 332.213 907.063 333.338 907.362 334.484C907.672 335.366 907.826 336.298 907.818 337.236C907.818 337.409 907.575 337.425 907.484 337.236C906.97 336.413 906.585 335.51 906.343 334.562C905.963 333.524 905.567 332.502 905.233 331.416C905.23 331.291 905.268 331.169 905.34 331.068C905.412 330.967 905.514 330.894 905.631 330.86C905.747 330.826 905.871 330.833 905.984 330.879C906.096 330.926 906.19 331.009 906.252 331.117Z" fill="#263238"/>
<path d="M934.408 302.598C934.408 302.488 934.606 302.519 934.621 302.598C934.773 307.506 934.621 312.555 936.462 317.196C938.284 321.274 941.381 324.599 945.254 326.634C947.449 327.902 949.709 329.047 952.023 330.063C952.175 330.063 952.115 330.409 951.932 330.346C947.458 329.164 943.237 327.126 939.489 324.337C937.664 322.751 936.201 320.769 935.201 318.531C934.202 316.294 933.693 313.856 933.708 311.391C933.656 308.443 933.891 305.497 934.408 302.598Z" fill="#263238"/>
<path d="M905.322 336.166C902.447 340.508 898.659 346.674 895.936 351.11C893.213 355.546 890.505 359.982 887.798 364.418C882.458 373.164 877.241 382.005 871.962 390.798C868.92 395.8 866.029 400.865 863.246 405.994C863.21 406.055 863.19 406.124 863.185 406.195C863.18 406.266 863.191 406.337 863.218 406.403C863.244 406.469 863.286 406.527 863.338 406.574C863.39 406.62 863.453 406.653 863.519 406.67L867.551 407.818C867.576 407.821 867.602 407.815 867.624 407.801C867.646 407.788 867.664 407.767 867.674 407.743C867.684 407.718 867.686 407.691 867.681 407.665C867.675 407.639 867.661 407.616 867.642 407.598L864.295 406.025C869.908 397.499 875.096 388.722 880.344 379.897C885.592 371.072 890.931 362.294 896.073 353.438C899.024 348.389 902.766 341.452 905.55 336.308C905.565 336.293 905.576 336.274 905.582 336.254C905.589 336.233 905.591 336.212 905.588 336.191C905.586 336.169 905.578 336.149 905.567 336.131C905.556 336.113 905.541 336.098 905.523 336.087C905.505 336.076 905.485 336.069 905.465 336.067C905.444 336.065 905.423 336.068 905.404 336.076C905.384 336.084 905.367 336.096 905.353 336.111C905.339 336.127 905.328 336.146 905.322 336.166Z" fill="#263238"/>
<path d="M904.12 518.403C904.12 518.403 900.606 571.1 900.606 571.147C900.317 581.231 899.891 590.024 899.253 594.601V594.68C899.22 595.781 898.939 596.858 898.431 597.826C895.48 599.777 817.504 599.73 814.766 598.786C812.028 597.842 814.446 589.741 817.473 587.255C820.501 584.77 850.377 570.959 850.377 570.959L852.902 518.293L904.12 518.403Z" fill="#D3766A"/>
<path d="M901.337 560.309C901.337 560.309 900.606 571.1 900.606 571.147C900.317 581.231 899.891 590.024 899.253 594.601V594.68C899.107 595.76 898.831 596.817 898.431 597.826C895.48 599.777 817.504 599.73 814.766 598.786C812.028 597.842 814.446 589.741 817.473 587.255C820.501 584.77 850.377 570.959 850.377 570.959L850.924 559.947L901.337 560.309Z" fill="#EBEBEB"/>
<path d="M814.72 598.785C817.443 599.729 895.42 599.776 898.386 597.826C899.527 597.102 900.196 585.367 900.607 571.084V570.628L850.316 570.014V570.911C850.316 570.911 820.455 584.691 817.413 587.192C814.371 589.693 811.998 597.842 814.72 598.785Z" fill="#C53F3F"/>
<path d="M815.604 595.655C828.747 595.325 881.791 595.293 894.812 596.017C894.919 596.017 894.919 596.096 894.812 596.096C881.791 596.709 828.747 596.3 815.604 595.875C815.33 595.875 815.33 595.671 815.604 595.655Z" fill="#263238"/>
<path d="M846.104 571.116C851.276 570.125 857.604 570.958 861.544 574.765C861.712 574.907 861.544 575.143 861.331 575.08C856.388 573.427 851.289 572.325 846.119 571.792C846.044 571.777 845.976 571.736 845.927 571.676C845.878 571.615 845.85 571.539 845.848 571.46C845.846 571.381 845.871 571.304 845.917 571.241C845.964 571.178 846.03 571.134 846.104 571.116Z" fill="#263238"/>
<path d="M842.362 573.444C847.534 572.453 853.862 573.271 857.817 577.093C857.969 577.235 857.817 577.455 857.589 577.408C852.646 575.754 847.547 574.652 842.377 574.12C842.302 574.106 842.234 574.064 842.185 574.004C842.135 573.944 842.107 573.868 842.106 573.789C842.104 573.709 842.128 573.632 842.175 573.569C842.222 573.507 842.288 573.462 842.362 573.444Z" fill="#263238"/>
<path d="M838.633 575.772C843.806 574.781 850.134 575.599 854.074 579.421C854.226 579.563 854.074 579.783 853.861 579.736C848.918 578.083 843.818 576.981 838.649 576.448C838.574 576.433 838.506 576.392 838.456 576.332C838.407 576.271 838.379 576.195 838.377 576.116C838.375 576.037 838.4 575.96 838.446 575.897C838.493 575.834 838.559 575.79 838.633 575.772Z" fill="#263238"/>
<path d="M900.244 228.287C892.182 253.298 878.948 278.907 875.905 283.154C865.683 297.076 820.427 291.664 810.631 289.289C806.585 288.298 810.022 253.613 814.327 252.511C817.37 251.756 855.4 261.84 856.921 259.59C858.046 258.017 875.844 238.448 885.458 226.147C899.073 208.781 902.921 219.949 900.244 228.287Z" fill="#D3766A"/>
<path d="M789.439 287.89C797.166 290.564 815.071 289.652 819.3 287.717C823.528 285.782 822.007 256.524 818.204 253.582C814.401 250.64 788.708 241.422 780.89 244.395C773.071 247.368 781.407 285.106 789.439 287.89Z" fill="#D3766A"/>
<path d="M784.011 230.183L776.582 233.214L794.703 280.712L802.132 277.681L784.011 230.183Z" fill="#C53F3F"/>
<path opacity="0.2" d="M784.011 230.183L776.582 233.214L794.703 280.712L802.132 277.681L784.011 230.183Z" fill="black"/>
<path d="M798.812 216.002C798.386 226.259 787.951 230.364 786.642 237.081L779.219 240.117C773.88 236.09 763.535 240.463 756.401 233.274C749.267 226.086 737.31 191.007 761.056 181.364C784.802 171.721 799.253 205.778 798.812 216.002Z" fill="#37474F"/>
<path d="M797.182 216.694C796.893 226.903 786.838 230.851 785.697 237.505L779.247 240.148C774.03 236.074 763.366 240.588 756.429 233.337C749.493 226.085 737.43 191.022 760.293 181.694C783.157 172.366 797.486 206.564 797.182 216.694Z" fill="#455A64"/>
<path d="M793.807 242.334C796.606 245.732 791.114 247.195 791.114 247.195C791.114 247.195 799.496 247.069 801.078 251.741C802.66 256.413 795.891 257.75 795.404 257.876C795.845 257.876 803.558 257.876 804.668 262.815C805.779 267.755 798.857 268.195 798.401 268.227C798.827 268.352 804.349 270.209 804.379 274.11C804.379 280.795 790.171 276.438 785.684 279.222C785.684 279.222 789.38 287.622 789.441 287.89C789.441 287.89 775.75 284.036 772.51 277.555C772.027 276.618 771.863 275.54 772.045 274.496C772.228 273.451 772.745 272.5 773.514 271.797C773.514 271.797 768.951 271.058 767.992 267.267C767.49 265.316 770.061 262.752 770.061 262.752C769.045 262.527 768.107 262.017 767.351 261.28C766.595 260.542 766.048 259.604 765.771 258.568C765.224 255.831 767.886 253.676 767.886 253.676C767.886 253.676 764.752 251.301 765.072 248.312C765.711 242.287 787.814 235.035 793.807 242.334Z" fill="#D3766A"/>
<path d="M768.263 253.266C768.187 253.266 768.126 253.266 768.263 253.156C775.221 248.745 783.312 246.627 791.461 247.084C791.72 247.084 791.796 247.54 791.461 247.588C783.503 248.307 775.688 250.22 768.263 253.266Z" fill="#263238"/>
<path d="M769.937 262.737C769.917 262.737 769.898 262.729 769.884 262.714C769.869 262.699 769.861 262.679 769.861 262.658C769.861 262.637 769.869 262.617 769.884 262.603C769.898 262.588 769.917 262.58 769.937 262.58C777.655 257.792 786.773 256.018 795.646 257.577C795.95 257.577 796.163 258.018 795.798 257.971C789.683 257.2 776.844 259.764 769.937 262.737Z" fill="#263238"/>
<path d="M798.98 268.573C790.294 267.141 782.049 268.714 773.789 271.609C773.683 271.609 773.637 271.483 773.789 271.42C777.455 268.871 782.916 267.597 787.236 266.984C791.236 266.33 795.332 266.77 799.117 268.258C799.178 268.321 799.178 268.604 798.98 268.573Z" fill="#263238"/>
<path d="M791.113 247.195C792.72 247.328 794.314 247.607 795.874 248.029C797.405 248.385 798.818 249.156 799.966 250.262C800.469 250.794 800.762 251.501 800.787 252.244C800.802 252.995 800.629 253.738 800.285 254.399C799.897 255.033 799.383 255.574 798.777 255.986C798.172 256.398 797.488 256.672 796.771 256.79L793.303 257.53L796.802 258.08C798.39 258.31 799.931 258.804 801.366 259.543C802.034 259.849 802.633 260.297 803.123 260.858C803.614 261.419 803.984 262.08 804.21 262.799C804.4 263.468 804.371 264.183 804.126 264.832C803.881 265.481 803.434 266.028 802.856 266.386C801.515 267.131 800.013 267.51 798.49 267.487L794.292 267.597L798.278 268.919C799.389 269.299 800.447 269.828 801.426 270.492C802.379 271.06 803.147 271.909 803.632 272.93C803.835 273.399 803.906 273.917 803.839 274.425C803.772 274.934 803.568 275.413 803.252 275.809C802.398 276.596 801.341 277.11 800.209 277.287C797.813 277.726 795.387 277.973 792.953 278.026C791.736 278.026 790.504 278.168 789.272 278.294C788.027 278.353 786.809 278.686 785.697 279.269C786.844 278.826 788.063 278.612 789.287 278.64C790.519 278.64 791.736 278.64 792.969 278.64C795.454 278.762 797.944 278.64 800.407 278.278C801.749 278.105 803.012 277.531 804.043 276.626C804.547 276.073 804.885 275.38 805.014 274.631C805.144 273.882 805.06 273.111 804.773 272.411C804.211 271.11 803.283 270.014 802.111 269.265C801.024 268.522 799.848 267.93 798.612 267.503L798.399 268.934C800.199 268.983 801.981 268.55 803.571 267.676C804.434 267.159 805.096 266.346 805.442 265.379C805.761 264.42 805.792 263.384 805.534 262.406C805.247 261.497 804.778 260.661 804.157 259.954C803.535 259.246 802.776 258.683 801.928 258.301C800.373 257.49 798.696 256.959 796.969 256.727V258.017C797.849 257.838 798.682 257.464 799.409 256.921C800.136 256.378 800.741 255.679 801.183 254.871C801.565 254.027 801.727 253.095 801.655 252.166C801.579 251.221 801.173 250.338 800.514 249.68C799.207 248.564 797.628 247.84 795.95 247.588C794.357 247.272 792.734 247.14 791.113 247.195Z" fill="#263238"/>
<path d="M815.391 252.023C815.391 252.023 790.003 225.958 785.226 240.729C783.811 245.118 783.051 264.907 786.884 265.143C791.843 265.457 793.653 257.277 794.003 251.913C794.003 251.913 801.214 261.698 809.291 258.52C810.726 258.001 812.024 257.143 813.082 256.016C814.141 254.888 814.931 253.521 815.391 252.023Z" fill="#D3766A"/>
<path d="M785.695 239.596C784.945 241.251 784.432 243.011 784.174 244.819C783.872 246.619 783.684 248.437 783.611 250.262C783.409 253.935 783.521 257.62 783.945 261.273C784.062 262.237 784.308 263.179 784.676 264.073C784.895 264.591 785.222 265.053 785.634 265.426C785.857 265.627 786.108 265.792 786.379 265.913C786.658 266.021 786.95 266.085 787.247 266.102C788.307 266.135 789.345 265.784 790.182 265.111C790.934 264.482 791.572 263.72 792.069 262.862C792.992 261.217 793.63 259.417 793.955 257.545C794.307 255.734 794.531 253.899 794.624 252.055L793.514 252.385C794.379 253.468 795.341 254.464 796.389 255.358C797.416 256.263 798.533 257.054 799.72 257.718C800.911 258.367 802.187 258.833 803.508 259.102C804.814 259.362 806.157 259.362 807.463 259.102C806.16 259.177 804.855 259.029 803.599 258.662C802.367 258.268 801.191 257.707 800.101 256.994C799.01 256.295 797.99 255.484 797.058 254.572C796.124 253.676 795.274 252.691 794.518 251.63L793.59 250.309L793.407 251.96C793.255 253.729 792.985 255.484 792.601 257.214C792.271 258.913 791.675 260.544 790.837 262.044C790.517 262.741 790.028 263.341 789.417 263.785C788.807 264.228 788.096 264.501 787.353 264.576C786.166 264.576 785.619 262.689 785.33 261.021C785.041 259.354 784.904 257.482 784.782 255.689C784.66 253.895 784.554 252.102 784.554 250.293C784.391 246.688 784.776 243.078 785.695 239.596Z" fill="#263238"/>
<path d="M881.899 278.309L858.533 256.774C858.533 256.774 875.008 234.342 884.485 224.385C893.962 214.428 907.014 209.174 899.697 233.65C894.976 249.023 889.023 263.961 881.899 278.309Z" fill="#C53F3F"/>
<path d="M863.081 253.282C864.314 254.258 865.485 255.359 866.626 256.429L870.261 259.826C872.635 262.06 875.008 264.31 877.35 266.559C878.704 267.849 879.997 269.217 881.381 270.444L881.305 270.539C880.088 269.438 878.811 268.447 877.578 267.393C876.346 266.339 875.114 265.253 873.897 264.152C871.478 261.966 864.146 254.856 862.975 253.44C862.914 253.361 862.99 253.22 863.081 253.282Z" fill="#263238"/>
<path d="M899.648 233.652C894.933 249.022 888.99 263.959 881.88 278.31L869.711 267.063L900.317 217.04C902.28 218.975 902.553 224.009 899.648 233.652Z" fill="#263238"/>
<path opacity="0.1" d="M862.701 251.191L862.031 252.182L884.849 272.379L885.397 271.2L862.701 251.191ZM865.241 247.84L864.48 248.847L886.568 268.415C886.751 268.038 886.933 267.629 887.1 267.22L865.241 247.84ZM867.781 244.521L867.036 245.512L888.333 264.388L888.835 263.193L867.781 244.521Z" fill="#030402"/>
<path d="M962.428 308.26L877.622 310.384C877.272 310.038 885.502 229.325 890.644 219.148C891.593 217.091 892.93 215.25 894.574 213.732C896.219 212.215 898.14 211.051 900.224 210.309C902.308 209.567 904.514 209.261 906.713 209.409C908.913 209.557 911.062 210.157 913.035 211.172C917.69 213.925 921.767 217.826 927.593 225.55C947.582 252.071 962.626 308.009 962.428 308.26Z" fill="#C53F3F"/>
<path opacity="0.1" d="M960.559 301.213L878.186 303.431C878.186 303.872 878.095 304.296 878.064 304.705L960.909 302.519C960.802 302.063 960.68 301.654 960.559 301.213ZM959.296 296.997L878.673 299.168C878.673 299.609 878.627 300.033 878.536 300.442L959.752 298.256C959.555 297.8 959.387 297.422 959.296 296.997ZM958.003 292.797L879.053 294.921L878.916 296.179L958.398 294.04C958.262 293.631 958.14 293.222 958.003 292.797Z" fill="#030402"/>
<path d="M915.107 226.132C920.127 235.224 947.31 263.728 947.858 265.663C948.406 267.597 918.21 292.137 912.764 298.13C909.053 302.189 934.396 326.697 941.865 319.681C953.456 308.811 987.805 280.197 985.827 265.427C983.85 250.656 932.677 220.39 922.88 215.231C913.084 210.071 906.877 211.157 915.107 226.132Z" fill="#D3766A"/>
<path d="M887.662 334.814C888.278 335.764 889.161 336.497 890.191 336.913C891.222 337.329 892.352 337.409 893.427 337.142C893.419 339.082 894.07 340.964 895.268 342.459C897.489 344.991 902.296 342.459 902.296 342.459C902.701 344.472 903.682 346.313 905.11 347.744C907.468 349.946 912.716 348.153 912.716 348.153C914.073 349.795 915.959 350.874 918.025 351.189C923.562 351.834 928.856 344.897 932.248 340.571C935.64 336.245 941.375 320.562 942.744 317.699L915.911 294.874C915.911 294.874 895.268 309.897 891.967 315.607C889.153 320.467 885.441 331.101 887.662 334.814Z" fill="#D3766A"/>
<path d="M893.139 336.592C894.919 330.74 898.266 325.753 901.323 320.578C901.323 320.468 901.567 320.578 901.491 320.688C898.448 325.8 896.304 331.479 893.398 336.702C893.384 336.737 893.357 336.765 893.323 336.78C893.288 336.795 893.25 336.795 893.215 336.78C893.181 336.766 893.154 336.738 893.14 336.702C893.125 336.667 893.125 336.627 893.139 336.592Z" fill="#263238"/>
<path d="M902.022 342.113C902.548 340.827 903.234 339.616 904.06 338.511C904.866 337.299 905.703 336.088 906.54 334.893C908.243 332.502 909.977 330.174 911.803 327.861C911.803 327.751 912.046 327.861 911.97 327.971C910.277 330.341 908.639 332.759 907.057 335.223C906.25 336.45 905.536 337.693 904.699 338.92C904.045 340.145 903.259 341.29 902.356 342.333C902.322 342.359 902.28 342.374 902.237 342.376C902.195 342.377 902.152 342.365 902.116 342.341C902.08 342.317 902.052 342.283 902.035 342.242C902.018 342.202 902.013 342.156 902.022 342.113Z" fill="#263238"/>
<path d="M912.748 348.137C913.239 346.978 913.918 345.914 914.755 344.991C915.546 343.921 916.277 342.851 917.113 341.766C918.635 339.611 920.247 337.44 921.677 335.222C921.677 335.112 921.92 335.222 921.844 335.332C920.323 337.597 918.802 339.878 917.281 342.128C916.535 343.229 915.76 344.33 915.029 345.415C914.457 346.447 913.716 347.367 912.839 348.137C912.839 348.137 912.732 348.137 912.748 348.137Z" fill="#263238"/>
<path d="M967.067 241.956L942.652 262.17C942.652 262.17 924.017 241.626 916.107 230.3C908.197 218.974 905.459 204.785 927.486 216.379C941.342 223.755 954.582 232.31 967.067 241.956Z" fill="#C53F3F"/>
<path opacity="0.1" d="M961.684 237.882L938.866 257.954L939.703 258.898L962.719 238.637L961.684 237.882ZM958.201 235.381L936.083 254.824L936.904 255.752L959.235 236.12L958.201 235.381ZM954.672 232.911L933.375 251.662L934.196 252.606L955.752 233.635L954.672 232.911Z" fill="#030402"/>
<path d="M922.178 240.62C923.106 241.391 924.004 242.193 924.871 242.98L926.179 244.191C925.768 243.688 925.358 243.2 924.962 242.697C923.441 240.746 921.92 238.764 920.398 236.735C920.398 236.656 920.398 236.593 920.505 236.656C923.547 239.802 926.407 243.168 929.267 246.535C932.127 249.901 934.956 253.063 937.77 256.366C939.292 258.222 942.486 262.029 942.517 261.998C942.547 261.966 943.475 261.431 943.566 261.353C943.657 261.274 943.688 261.353 943.566 261.447L942.364 262.407C940.74 260.944 939.215 259.367 937.801 257.688C936.28 256.115 934.865 254.431 933.42 252.78C931.245 250.279 929.069 247.793 926.955 245.229C926.149 244.584 925.434 243.845 924.612 243.168C923.791 242.492 922.878 241.595 922.041 240.746C922.057 240.667 922.117 240.573 922.178 240.62Z" fill="#263238"/>
<path d="M940.069 256.901C941.194 255.799 942.442 254.808 943.658 253.754L947.522 250.608C950.048 248.548 952.573 246.518 955.128 244.505C956.573 243.341 958.095 242.24 959.509 241.044C959.509 241.044 959.616 241.044 959.509 241.139C958.262 242.193 957.091 243.341 955.874 244.411C954.657 245.48 953.409 246.566 952.177 247.557C949.682 249.649 941.681 255.941 940.129 256.901C940.099 257.137 939.977 257.026 940.069 256.901Z" fill="#263238"/>
<path d="M900.21 227.548C901.487 227.077 908.029 217.449 909.063 211.205C907.979 208.299 906.75 205.453 905.382 202.679C904.195 199.957 902.933 196.874 901.99 193.995C901.792 193.398 900.195 195.175 900.195 195.175L896.894 197.362L885.926 204.566C888.121 207.823 889.919 211.347 891.28 215.058C891.406 215.458 891.497 215.869 891.554 216.285C891.549 216.354 891.549 216.422 891.554 216.49C891.98 218.865 898.11 228.288 900.21 227.548Z" fill="#D3766A"/>
<path d="M891.556 216.284C891.55 216.352 891.55 216.421 891.556 216.489C892.181 216.359 892.797 216.18 893.396 215.954C905.094 211.518 901.443 195.504 901.443 195.504L896.88 197.36L885.912 204.565C888.107 207.822 889.906 211.345 891.267 215.057C891.397 215.457 891.494 215.867 891.556 216.284Z" fill="#263238"/>
<path d="M898.31 172.728C901.991 178.721 903.68 198.557 900.303 204.047C895.42 212.006 884.893 215.64 877.713 208.971C870.761 202.49 868.997 176.597 872.998 171.343C878.9 163.588 892.895 163.887 898.31 172.728Z" fill="#D3766A"/>
<path d="M883.508 189.118C883.508 189.118 883.614 189.118 883.614 189.228C883.614 190.565 884.01 192.075 885.136 192.374V192.453C883.767 192.405 883.325 190.392 883.508 189.118Z" fill="#263238"/>
<path d="M884.544 187.686C886.598 187.324 887.146 191.619 885.244 191.949C883.343 192.28 882.81 187.906 884.544 187.686Z" fill="#263238"/>
<path d="M876.086 190.346C876.086 190.346 875.995 190.424 876.086 190.487C876.299 191.809 876.329 193.366 875.219 193.964C876.557 193.633 876.497 191.573 876.086 190.346Z" fill="#263238"/>
<path d="M874.763 189.118C872.679 189.244 873.074 193.554 875.006 193.444C876.938 193.334 876.512 189.024 874.763 189.118Z" fill="#263238"/>
<path d="M885.928 185.421C885.335 185.343 884.818 185.185 884.24 185.059C883.631 185.009 883.054 184.755 882.597 184.336C882.475 184.177 882.408 183.98 882.408 183.777C882.408 183.575 882.475 183.378 882.597 183.219C882.88 182.942 883.229 182.746 883.608 182.652C883.987 182.558 884.383 182.569 884.757 182.684C885.55 182.802 886.272 183.223 886.78 183.864C886.891 184.016 886.956 184.198 886.968 184.387C886.981 184.577 886.939 184.766 886.848 184.932C886.758 185.097 886.622 185.231 886.459 185.319C886.296 185.406 886.111 185.441 885.928 185.421Z" fill="#263238"/>
<path d="M872.891 187.183C873.41 186.988 873.918 186.763 874.412 186.507C875.012 186.353 875.547 186 875.933 185.5C876.022 185.323 876.051 185.119 876.015 184.922C875.979 184.726 875.881 184.547 875.736 184.415C875.411 184.188 875.033 184.056 874.642 184.034C874.251 184.012 873.861 184.1 873.515 184.289C872.745 184.558 872.103 185.121 871.72 185.862C871.651 186.036 871.631 186.227 871.663 186.412C871.695 186.596 871.778 186.768 871.9 186.907C872.023 187.045 872.181 187.145 872.357 187.194C872.532 187.243 872.718 187.239 872.891 187.183Z" fill="#263238"/>
<path d="M886.275 201.294C886.017 201.64 885.758 202.112 885.302 202.222C884.821 202.278 884.334 202.229 883.872 202.08C884.09 202.313 884.364 202.482 884.667 202.568C884.969 202.653 885.288 202.654 885.591 202.568C885.845 202.465 886.063 202.285 886.217 202.052C886.372 201.82 886.456 201.545 886.458 201.262C886.366 201.262 886.366 201.247 886.275 201.294Z" fill="#263238"/>
<path d="M884.421 197.503C884.161 198.072 883.791 198.579 883.333 198.993C882.875 199.407 882.339 199.719 881.759 199.91C881.266 200.076 880.755 200.176 880.238 200.209H879.645C879.573 200.204 879.505 200.175 879.45 200.127C879.395 200.079 879.357 200.014 879.34 199.941V199.815V199.705C879.188 198.683 879.082 197.11 879.082 197.11C878.747 197.346 877.013 198.462 876.967 197.912C876.511 193.278 876.511 188.608 876.967 183.975C876.967 183.941 876.98 183.909 877.003 183.886C877.026 183.862 877.057 183.849 877.089 183.849C877.121 183.849 877.152 183.862 877.175 183.886C877.198 183.909 877.211 183.941 877.211 183.975C877.667 188.253 877.408 192.595 877.804 196.889C878.425 196.489 879.095 196.177 879.797 195.961C879.934 195.961 879.934 198.997 880.04 199.453C880.864 199.43 881.674 199.234 882.421 198.877C883.169 198.52 883.839 198.01 884.391 197.377C884.376 197.298 884.482 197.377 884.421 197.503Z" fill="#263238"/>
<path d="M880.711 199.61C881.349 200.265 882.14 200.737 883.008 200.979C883.482 201.104 883.983 201.071 884.438 200.885C885.427 200.46 885.32 199.485 885.031 198.682C884.87 198.25 884.661 197.838 884.407 197.455C883.431 198.566 882.135 199.321 880.711 199.61Z" fill="#263238"/>
<path d="M883.008 200.979C883.482 201.104 883.983 201.071 884.438 200.885C885.427 200.46 885.32 199.485 885.031 198.682C884.493 198.773 884 199.049 883.633 199.466C883.265 199.883 883.045 200.416 883.008 200.979Z" fill="#FF97B8"/>
<path d="M900.867 188.709C896.075 189.433 893.839 180.608 893.839 180.608C893.839 180.608 885.442 180.498 883.313 174.316C883.313 174.316 876.285 180.608 869.82 179.318C863.355 178.029 863.613 170.62 864.07 168.984C864.526 167.348 868.329 169.66 868.329 169.66C868.329 169.66 868.131 165.554 869.105 164.941C870.078 164.327 871.599 166.64 871.599 166.64C876.223 164.265 881.167 162.626 886.264 161.779C893.459 160.867 898.083 167.772 898.083 167.772C898.083 167.772 902.038 168.024 903.681 170.604C905.324 173.184 903.909 188.238 900.867 188.709Z" fill="#263238"/>
<path d="M883.236 173.057C883.451 174.349 883.889 175.591 884.529 176.722C885.188 177.812 886.118 178.697 887.222 179.286C888.361 179.809 889.583 180.113 890.827 180.183C891.451 180.183 892.09 180.183 892.729 180.183C893.368 180.183 893.991 180.041 894.645 179.994C894.022 180.183 893.398 180.324 892.759 180.497C892.12 180.67 891.466 180.67 890.812 180.702C889.477 180.74 888.151 180.466 886.933 179.9C885.729 179.258 884.746 178.247 884.119 177.005C883.51 175.786 883.206 174.429 883.236 173.057Z" fill="#263238"/>
<path d="M898.278 168.811C897.522 166.805 896.274 165.037 894.657 163.682C893.042 162.376 891.063 161.642 889.013 161.59C888.507 161.552 887.999 161.552 887.492 161.59L885.971 161.795C884.952 161.984 883.963 162.33 882.929 162.613C881.894 162.896 880.966 163.368 880.023 163.824L877.209 165.255C878.091 164.658 878.989 164.107 879.886 163.541C880.784 162.975 881.803 162.613 882.761 162.141C884.747 161.312 886.872 160.9 889.013 160.93C891.185 161.011 893.268 161.842 894.931 163.289C896.555 164.743 897.72 166.666 898.278 168.811Z" fill="#263238"/>
<path d="M898.633 189.338C898.633 189.338 901.264 182.087 904.337 182.905C907.41 183.723 906.497 193.444 903.637 195.489C903.287 195.778 902.884 195.992 902.452 196.117C902.021 196.241 901.569 196.274 901.124 196.214C900.68 196.154 900.251 196.002 899.865 195.766C899.479 195.531 899.142 195.217 898.876 194.844L898.633 189.338Z" fill="#D3766A"/>
<path d="M891.59 216.395L898.876 226.053L908.14 208.467L913.054 211.786C913.054 211.786 906.3 237.395 905.95 236.451L899.044 228.366L894.571 236.719L890.586 220.217L891.59 216.395Z" fill="#455A64"/>
<path d="M892.15 228.586C891.587 225.833 890.933 223.08 890.492 220.311C890.492 220.217 890.599 220.123 890.659 220.233C891.892 222.687 894.021 233.21 894.721 235.68C894.904 235.318 898.935 228.24 899.026 228.303C900.365 229.514 905.43 235.397 905.811 235.963C906.875 231.889 911.15 216.992 912.625 213.013C912.625 212.902 912.838 212.934 912.808 213.013C912.032 217.197 906.465 237.206 906.297 237.206C906.13 237.206 899.954 230.08 899.041 228.633C898.433 230.096 894.478 237.898 894.478 237.505C893.551 234.576 892.774 231.599 892.15 228.586Z" fill="#263238"/>
<path d="M234.554 594.365C231.816 595.278 153.718 594.491 150.752 592.509C149.626 591.77 149.079 579.925 148.805 565.768C148.805 562.621 151.482 512.284 151.482 512.284L201.24 512.96L199.156 566.161C199.156 566.161 228.926 580.318 231.953 582.835C234.98 585.352 237.292 593.532 234.554 594.365Z" fill="#F7A9A0"/>
<path d="M234.552 594.366C231.814 595.278 153.716 594.492 150.749 592.51C149.624 591.77 149.076 579.925 148.787 565.768C148.787 565.154 148.894 562.622 149.061 558.862L199.504 559.759L199.154 566.145C199.154 566.145 228.923 580.303 231.951 582.804C234.978 585.305 237.29 593.532 234.552 594.366Z" fill="#EBEBEB"/>
<path d="M234.887 594.492C232.149 595.42 153.777 594.712 150.811 592.73C149.67 591.99 148.499 580.004 148.803 565.768L199.337 566.192C199.337 566.192 229.228 580.35 232.27 582.883C235.313 585.415 237.64 593.532 234.887 594.492Z" fill="#C53F3F"/>
<path d="M233.775 591.252C220.648 590.796 167.634 590.245 154.674 590.827C154.567 590.827 154.567 590.906 154.674 590.921C167.68 591.661 220.693 591.755 233.775 591.472C234.065 591.456 234.065 591.252 233.775 591.252Z" fill="#263238"/>
<path d="M227.25 579.91C225.788 579.863 224.333 580.128 222.975 580.688C221.616 581.248 220.384 582.092 219.355 583.166C217.483 585.081 216.394 587.665 216.312 590.386C216.313 590.465 216.465 590.481 216.48 590.386C216.944 587.698 218.242 585.239 220.176 583.381C222.111 581.522 224.578 580.365 227.204 580.083C227.356 580.083 227.356 579.926 227.25 579.91Z" fill="#263238"/>
<path d="M204.433 567.593C199.169 567.467 193.054 569.339 189.753 573.743C189.631 573.916 189.86 574.105 190.012 574.026C194.633 571.577 199.493 569.642 204.509 568.253C204.593 568.243 204.671 568.198 204.723 568.129C204.776 568.059 204.8 567.971 204.79 567.884C204.78 567.796 204.737 567.716 204.67 567.661C204.603 567.607 204.517 567.582 204.433 567.593Z" fill="#263238"/>
<path d="M208.482 569.26C203.218 569.134 197.103 571.006 193.802 575.426C193.665 575.599 193.909 575.772 194.061 575.694C198.679 573.243 203.54 571.313 208.558 569.936C208.633 569.913 208.697 569.863 208.74 569.795C208.783 569.727 208.802 569.646 208.792 569.565C208.783 569.485 208.747 569.41 208.691 569.354C208.634 569.298 208.56 569.265 208.482 569.26Z" fill="#263238"/>
<path d="M212.482 570.943C207.218 570.817 201.103 572.673 197.802 577.094C197.665 577.267 197.909 577.455 198.061 577.377C202.679 574.921 207.539 572.985 212.558 571.604C212.642 571.593 212.72 571.548 212.772 571.479C212.825 571.41 212.849 571.322 212.839 571.234C212.829 571.146 212.786 571.067 212.719 571.012C212.651 570.957 212.566 570.933 212.482 570.943Z" fill="#263238"/>
<path d="M216.556 572.611C211.308 572.486 205.193 574.357 201.892 578.762C201.755 578.935 201.998 579.124 202.15 579.045C206.769 576.594 211.63 574.664 216.647 573.288C216.723 573.263 216.788 573.212 216.831 573.143C216.873 573.073 216.89 572.991 216.879 572.91C216.868 572.828 216.83 572.754 216.771 572.699C216.712 572.645 216.635 572.613 216.556 572.611Z" fill="#263238"/>
<path d="M158.08 577.96C152.178 577.96 152.117 587.399 158.08 587.399C164.043 587.399 163.998 577.992 158.08 577.96Z" fill="white"/>
<path d="M210.229 553.137C207.597 550.825 204.144 553.027 202.623 555.387C199.841 559.481 198.151 564.261 197.725 569.245C197.725 569.355 197.801 569.402 197.892 569.402C197.912 569.505 197.956 569.601 198.019 569.682C198.082 569.764 198.163 569.829 198.255 569.872C198.347 569.915 198.447 569.934 198.548 569.929C198.649 569.924 198.747 569.895 198.835 569.843C202.592 567.2 206.943 564.856 209.803 561.097C211.415 558.926 212.739 555.324 210.229 553.137ZM203.688 564.636C201.862 565.973 199.991 567.232 198.211 568.647C199.095 565.917 200.11 563.234 201.254 560.609C201.83 559.349 202.485 558.13 203.216 556.96C204.372 555.182 209.575 550.667 210.046 556.598C210.29 559.87 205.863 563.032 203.688 564.636Z" fill="#263238"/>
<path d="M184.581 571.132C189.145 571.903 193.891 570.597 198.393 569.921C198.492 569.897 198.584 569.849 198.661 569.781C198.738 569.713 198.798 569.627 198.837 569.53C198.875 569.433 198.891 569.329 198.883 569.224C198.874 569.12 198.842 569.019 198.789 568.93C198.808 568.919 198.824 568.903 198.835 568.884C198.846 568.864 198.852 568.842 198.852 568.82C198.852 568.797 198.846 568.775 198.835 568.756C198.824 568.737 198.808 568.721 198.789 568.71C195.219 565.333 190.855 562.984 186.133 561.899C183.364 561.332 179.439 562.056 178.998 565.611C178.557 569.166 181.919 570.692 184.581 571.132ZM181.432 567.986C177.918 563.267 184.688 562.968 186.711 563.487C188.012 563.833 189.288 564.274 190.529 564.809C193.13 565.878 195.534 567.294 198.013 568.615C195.777 568.804 193.586 569.197 191.366 569.481C188.703 569.842 183.379 570.613 181.432 568.018V567.986Z" fill="#263238"/>
<path d="M144.117 320.83V324.337C144.117 324.337 152.088 400.897 153.427 428.976C154.081 442.63 149.076 540.159 149.076 540.159L201.238 541.056C201.238 541.056 203.687 456.851 202.455 423.754C201.39 394.873 187.897 321.003 187.897 321.003L187.745 317.652L184.824 288.566H144.482L144.117 320.83Z" fill="#37474F"/>
<path d="M153.471 438.163C153.471 433.948 153.562 430.754 153.471 428.977C152.193 402.235 144.892 331.448 144.207 324.826C144.207 324.621 144.207 324.479 144.207 324.401V320.893L144.572 288.646H178.601L153.471 438.163Z" fill="#263238"/>
<path d="M173.476 462.86V469.262L151.799 483.939C151.89 481.721 151.981 479.518 152.088 477.316L173.476 462.86Z" fill="#C53F3F"/>
<path d="M173.479 475.444V481.846L151.209 496.916C151.315 494.729 151.422 492.511 151.513 490.277L173.479 475.444Z" fill="#C53F3F"/>
<path d="M173.478 488.012V494.43L150.66 509.909C150.767 507.754 150.858 505.52 150.964 503.255L173.478 488.012Z" fill="#C53F3F"/>
<path d="M79.4517 588.295C76.8201 587.115 18.8019 533.05 17.8435 529.542C17.4784 528.205 24.5976 519.018 33.5118 508.148C35.4285 505.805 69.777 469.876 69.777 469.876L105.996 506.276L71.0091 542.897C71.0091 542.897 84.2739 573.87 84.9128 577.803C85.5517 581.735 82.0986 589.49 79.4517 588.295Z" fill="#F7A9A0"/>
<path d="M79.4669 588.31C76.8201 587.115 18.8019 533.049 17.8435 529.541C17.4784 528.204 24.5976 519.018 33.4966 508.148C33.8921 507.676 35.6262 505.804 38.0601 503.146L75.2837 538.35L71.0091 542.897C71.0091 542.897 84.2739 573.87 84.9128 577.802C85.5517 581.735 82.0986 589.49 79.4669 588.31Z" fill="#EBEBEB"/>
<path d="M79.6187 588.64C76.9718 587.445 18.7711 533.253 17.7367 529.73C17.3716 528.408 24.1713 518.624 33.5114 508.148L71.1152 543.085C71.1152 543.085 84.4409 574.153 85.095 578.132C85.7491 582.112 82.2656 589.82 79.6187 588.64Z" fill="#C53F3F"/>
<path d="M80.8812 585.446C71.3281 576.118 31.9445 539.404 21.8286 530.925C21.6917 530.925 21.7373 530.925 21.8286 530.925C31.1079 540.363 70.7653 576.763 80.8051 585.541C80.9573 585.793 81.0789 585.667 80.8812 585.446Z" fill="#263238"/>
<path d="M83.1784 572.47C82.1125 571.436 80.8519 570.639 79.4753 570.13C78.0987 569.622 76.6356 569.411 75.177 569.513C72.5575 569.672 70.0992 570.872 68.3164 572.863C68.3164 572.863 68.3164 573.036 68.4229 572.973C70.4923 571.277 73.039 570.323 75.6788 570.255C78.3186 570.187 80.9081 571.009 83.0567 572.596C83.0738 572.604 83.0929 572.607 83.1115 572.604C83.1301 572.601 83.1473 572.591 83.1606 572.578C83.1739 572.564 83.1828 572.546 83.186 572.527C83.1892 572.508 83.1866 572.488 83.1784 572.47Z" fill="#263238"/>
<path d="M74.0503 547.615C70.1865 543.919 64.4212 541.134 59.1122 542.173C58.9145 542.173 58.9601 542.519 59.1122 542.566C64.1384 543.893 69.0134 545.77 73.6548 548.166C73.7254 548.22 73.8139 548.243 73.901 548.23C73.988 548.217 74.0663 548.168 74.1188 548.095C74.1712 548.022 74.1935 547.931 74.1806 547.841C74.1678 547.751 74.1209 547.67 74.0503 547.615Z" fill="#263238"/>
<path d="M75.9861 551.641C72.1223 547.945 66.357 545.16 61.048 546.199C60.835 546.199 60.8959 546.545 61.048 546.592C66.0707 547.914 70.9412 549.792 75.5754 552.192C75.646 552.248 75.7353 552.273 75.8238 552.261C75.9122 552.25 75.9925 552.202 76.0469 552.129C76.1014 552.056 76.1256 551.964 76.1142 551.872C76.1028 551.781 76.0567 551.698 75.9861 551.641Z" fill="#263238"/>
<path d="M77.947 555.653C74.0832 551.973 68.3027 549.173 63.0089 550.226C62.796 550.226 62.8568 550.573 63.0089 550.62C68.0412 551.943 72.9218 553.82 77.5667 556.22C77.6394 556.263 77.7249 556.276 77.8065 556.257C77.8881 556.238 77.9598 556.188 78.0076 556.117C78.0553 556.046 78.0755 555.959 78.0643 555.873C78.0531 555.787 78.0113 555.709 77.947 555.653Z" fill="#263238"/>
<path d="M79.908 559.68C76.0441 555.984 70.2636 553.199 64.9699 554.253C64.7569 554.253 64.8178 554.584 64.9699 554.631C70.0005 555.966 74.8803 557.849 79.5277 560.247C79.6003 560.29 79.6859 560.303 79.7675 560.284C79.8491 560.265 79.9208 560.215 79.9685 560.144C80.0162 560.073 80.0365 559.986 80.0253 559.9C80.0141 559.814 79.9722 559.736 79.908 559.68Z" fill="#263238"/>
<path d="M32.6599 523.659C28.2637 519.584 22.1333 526.647 26.5752 530.722C31.017 534.796 37.0562 527.717 32.6599 523.659Z" fill="white"/>
<path d="M87.6355 540.757C87.1335 537.218 83.1936 536.557 80.4402 537.186C75.7586 538.36 71.4572 540.785 67.9665 544.218C67.9475 544.229 67.9316 544.245 67.9206 544.264C67.9095 544.283 67.9037 544.305 67.9037 544.328C67.9037 544.35 67.9095 544.372 67.9206 544.392C67.9316 544.411 67.9475 544.427 67.9665 544.438C67.9165 544.529 67.8876 544.63 67.8819 544.734C67.8762 544.839 67.894 544.943 67.9337 545.039C67.9735 545.135 68.0343 545.22 68.1112 545.288C68.1881 545.355 68.2792 545.404 68.3772 545.429C72.9408 546.027 77.6565 547.238 82.2048 546.388C84.8213 545.885 88.107 544.092 87.6355 540.757ZM75.3595 544.878C73.1385 544.642 70.9328 544.296 68.6967 544.139C71.0976 542.695 73.5704 541.382 76.1049 540.206C77.3386 539.647 78.6095 539.179 79.9078 538.806C81.9158 538.256 88.7003 538.445 85.2624 543.211C83.3609 545.838 78.0216 545.162 75.3595 544.878Z" fill="#263238"/>
<path d="M56.8776 536.683C59.8135 540.395 64.1945 542.645 68.0127 545.224C68.1008 545.273 68.1988 545.3 68.2987 545.302C68.3986 545.305 68.4976 545.283 68.5879 545.238C68.6781 545.194 68.757 545.128 68.8183 545.047C68.8796 544.965 68.9214 544.87 68.9406 544.768C68.9632 544.771 68.986 544.768 69.0074 544.76C69.0288 544.752 69.0482 544.74 69.0642 544.723C69.0803 544.707 69.0925 544.686 69.1001 544.664C69.1076 544.642 69.1103 544.619 69.1079 544.595C68.5844 539.622 66.8118 534.877 63.9663 530.831C62.2626 528.503 58.8551 526.379 56.2539 528.723C53.6526 531.067 55.1586 534.512 56.8776 536.683ZM56.5125 532.184C56.8928 526.254 62.1713 530.611 63.3578 532.42C64.1033 533.579 64.7741 534.788 65.3658 536.038C66.5542 538.64 67.6153 541.301 68.5451 544.013C66.7349 542.629 64.8486 541.418 63.0079 540.096C60.8022 538.476 56.3147 535.456 56.5125 532.184Z" fill="#263238"/>
<path d="M182.543 288.535C182.345 289.511 182.68 305.068 179.318 318.423C176.884 328.176 174.359 336.749 172.929 337.63C171.499 338.511 163.33 342.349 160.668 343.419C160.668 343.419 157.322 422.071 148.818 448.938C143.251 466.541 87.0273 527.119 87.0273 527.119L48.6934 490.703C48.6934 490.703 91.9104 440.507 101.114 426.538C106.286 418.673 113.42 331.794 113.42 331.794C111.229 304.093 122.73 288.535 122.73 288.535H182.543Z" fill="#37474F"/>
<path d="M173.724 337.598C168.078 339.727 162.622 342.359 157.416 345.464C157.394 345.474 157.375 345.489 157.358 345.507C157.342 345.525 157.329 345.546 157.32 345.57C157.312 345.593 157.308 345.618 157.309 345.643C157.31 345.668 157.315 345.692 157.325 345.715C157.335 345.738 157.349 345.758 157.367 345.775C157.385 345.792 157.405 345.806 157.428 345.815C157.45 345.823 157.475 345.827 157.499 345.827C157.523 345.826 157.546 345.82 157.568 345.81C163.06 343.371 168.658 341.09 174.013 338.275C174.081 338.224 174.13 338.151 174.153 338.067C174.175 337.983 174.168 337.894 174.134 337.815C174.101 337.735 174.041 337.67 173.966 337.631C173.891 337.591 173.806 337.58 173.724 337.598Z" fill="#263238"/>
<path d="M116.264 440.728L112.568 445.903L87.5137 444.33C88.9436 442.552 90.3279 440.838 91.6209 439.186L116.264 440.728Z" fill="#C53F3F"/>
<path d="M109.041 450.826L105.344 456.001L79.332 454.428L83.5457 449.3L109.041 450.826Z" fill="#C53F3F"/>
<path d="M101.783 460.941L98.087 466.116L71.0098 464.543L75.2995 459.399L101.783 460.941Z" fill="#C53F3F"/>
<path d="M164.656 173.199C147.77 188.269 142.659 215.782 158.845 241.312C173.57 264.53 204.48 272.867 220.088 263.523C236.684 253.613 238.57 232.346 228.424 221.696C218.627 211.424 205.226 210.307 199.917 200.24C197.376 195.426 197.589 186.082 194.121 178.862C190.272 170.73 175.517 163.509 164.656 173.199Z" fill="#263238"/>
<path d="M202.469 268.636C193.291 268.421 184.317 265.79 176.396 260.991C168.445 256.165 161.677 249.506 156.621 241.533C151.428 233.643 148.376 224.457 147.783 214.933C147.392 205.453 149.484 196.04 153.837 187.688C149.896 196.165 148.12 205.545 148.68 214.933C149.006 219.585 149.948 224.168 151.479 228.555C153.009 232.934 155.053 237.102 157.564 240.967C160.057 244.854 162.933 248.465 166.143 251.742C169.363 254.999 172.936 257.86 176.792 260.268C180.666 262.685 184.801 264.623 189.113 266.041C193.434 267.515 197.926 268.387 202.469 268.636Z" fill="#263238"/>
<path d="M231.647 223.867C230.112 221.432 228.206 219.27 226.003 217.465C223.842 215.634 221.478 214.076 218.96 212.824C216.425 211.566 213.915 210.223 211.43 208.797C208.908 207.402 206.558 205.696 204.433 203.716C203.354 202.715 202.371 201.609 201.497 200.413C200.662 199.183 199.987 197.845 199.489 196.433C198.589 193.65 197.853 190.813 197.283 187.939C196.687 185.114 195.741 182.381 194.469 179.806C193.161 177.238 191.408 174.94 189.297 173.026C191.564 174.798 193.476 177.01 194.925 179.539C196.322 182.11 197.385 184.86 198.089 187.718C198.88 190.534 199.428 193.397 200.417 196.055C200.899 197.381 201.548 198.635 202.349 199.784C203.193 200.923 204.14 201.976 205.178 202.93C209.24 206.831 214.397 209.332 219.34 212.085C221.867 213.449 224.222 215.129 226.353 217.087C228.481 219.016 230.272 221.309 231.647 223.867Z" fill="#263238"/>
<path d="M164.077 229.515C168.823 252.874 178.208 284.493 182.772 288.52C191.549 296.259 213.789 309.771 231.009 313.987C234.964 314.947 244.791 284.304 240.638 282.935C231.77 280.041 204.221 267.755 201.528 265.852C198.045 263.382 187.472 239.991 178.634 226.117C170.694 213.674 160.973 214.288 164.077 229.515Z" fill="#F7A9A0"/>
<path d="M253.673 314.616C251.634 315.041 251.832 316.19 255.194 317.888C258.556 319.587 273.022 323.567 271.258 328.695C269.493 333.823 249.079 327.924 243.785 324.605C239.264 321.437 235.005 317.885 231.053 313.987C235.206 314.302 245.443 314.082 253.673 314.616Z" fill="#F7A9A0"/>
<path d="M236.669 282.494C248.458 283.863 263.198 284.807 273.907 293.096C275.121 293.986 276.01 295.271 276.433 296.746C281.285 300.364 281.087 303.84 281.087 303.84C284.617 308.654 283.947 312.162 283.947 312.162C283.947 312.162 289.621 316.488 287.659 320.452C285.468 324.919 277.938 317.982 271.549 316.771C256.885 314.018 235.315 314.348 231.01 313.986L236.669 282.494Z" fill="#F7A9A0"/>
<path d="M258.116 302.724C262.415 303.471 266.659 304.522 270.818 305.87C275.278 307.634 279.605 309.737 283.764 312.162C283.79 312.192 283.826 312.209 283.865 312.21C283.903 312.212 283.941 312.197 283.969 312.17C283.997 312.143 284.014 312.105 284.015 312.066C284.017 312.026 284.003 311.987 283.977 311.958C276.358 306.416 267.411 303.15 258.116 302.52C257.98 302.52 257.934 302.677 258.116 302.724Z" fill="#263238"/>
<path d="M258.467 293.333C262.604 294.45 269.86 296.479 281.011 303.966C274.636 298.254 266.852 294.485 258.527 293.081C258.254 293.081 258.193 293.254 258.467 293.333Z" fill="#263238"/>
<path d="M258.741 288.362C264.967 290.349 270.903 293.202 276.387 296.841C276.387 296.841 276.478 296.841 276.387 296.762C269.389 291.398 266.256 290.265 258.726 288.11C258.513 287.953 258.467 288.205 258.741 288.362Z" fill="#263238"/>
<path d="M188.476 298.163C188.476 298.163 163.514 302.882 116.98 296.149C116.98 296.149 138.277 236.861 153.839 221.414C160.912 214.382 167.393 215.877 172.686 220.926C174.01 222.2 190.013 249.729 191.078 257.657C192.006 264.657 186.164 272.05 186.164 272.05L188.476 298.163Z" fill="#C53F3F"/>
<path d="M149.653 265.867V269.343L124.432 276.988C124.949 275.698 125.496 274.377 126.059 273.008L149.653 265.867Z" fill="#263238"/>
<path d="M149.653 274.047V277.524L120.75 286.286L122.271 282.337L149.653 274.047Z" fill="#263238"/>
<path d="M149.655 282.227V285.704L117.254 295.52L118.699 291.603L149.655 282.227Z" fill="#263238"/>
<path d="M180.308 268.18C176.422 268.32 172.571 268.986 168.853 270.162C165.111 271.247 156.836 274.645 154.752 275.479V275.573C157.448 274.905 160.105 274.075 162.708 273.088C166.389 271.798 170.086 270.634 173.843 269.627C175.964 269.073 178.119 268.669 180.293 268.416C180.317 268.409 180.338 268.394 180.354 268.374C180.369 268.354 180.379 268.329 180.38 268.303C180.382 268.278 180.376 268.252 180.363 268.23C180.35 268.208 180.331 268.19 180.308 268.18Z" fill="#263238"/>
<path d="M183.745 270.224C179.698 269.882 175.624 270.254 171.697 271.326V271.42C173.705 271.168 175.683 270.932 177.691 270.759C179.699 270.586 181.722 270.476 183.776 270.335C183.821 270.335 183.821 270.224 183.745 270.224Z" fill="#263238"/>
<path d="M160.761 232.645C153.825 258.364 144.485 283.785 140.986 288.457C130.596 302.237 98.1189 313.5 88.7484 315.592C84.702 316.504 73.9928 282.212 77.7958 279.852C80.4274 278.279 115.263 267.645 117.255 265.695C121.439 261.699 138.05 238.953 148.79 226.369C162.906 209.6 162.511 225.913 160.761 232.645Z" fill="#F7A9A0"/>
<path d="M68.3777 323.614C76.5008 322.749 92.4277 314.27 95.5157 310.699C98.6037 307.128 85.5063 281.142 80.8666 280.088C76.227 279.034 49.1498 281.661 43.2172 287.67C37.2845 293.679 59.9655 324.542 68.3777 323.614Z" fill="#F7A9A0"/>
<path d="M54.1592 270.599L47.0352 274.331L69.3523 319.879L76.4763 316.147L54.1592 270.599Z" fill="#C53F3F"/>
<path opacity="0.2" d="M54.1592 270.599L47.0352 274.331L69.3523 319.879L76.4763 316.147L54.1592 270.599Z" fill="black"/>
<path d="M67.6462 255.124C68.1482 265.38 58.1084 270.477 57.4543 277.288L50.3351 281.016C44.6458 277.54 34.7429 282.888 27.0305 276.407C19.318 269.926 4.21261 236.153 27.0305 224.229C49.8483 212.306 67.1595 244.883 67.6462 255.124Z" fill="#C53F3F"/>
<path opacity="0.2" d="M67.6462 255.124C68.1482 265.38 58.1084 270.477 57.4543 277.288L50.3351 281.016C44.6458 277.54 34.7429 282.888 27.0305 276.407C19.318 269.926 4.21261 236.153 27.0305 224.229C49.8483 212.306 67.1595 244.883 67.6462 255.124Z" fill="black"/>
<path d="M66.0962 255.942C66.7199 266.135 57.0603 271.027 56.5279 277.776L50.3367 281.016C44.7691 277.477 34.5619 282.983 26.9712 276.439C19.3804 269.895 4.2446 236.137 26.1802 224.638C48.1157 213.139 65.4725 245.764 66.0962 255.942Z" fill="#C53F3F"/>
<path d="M77.6867 279.852C77.6867 279.852 44.2205 266.985 45.7417 282.479C46.2133 287.088 53.3477 305.43 57.0138 303.998C61.5773 302.158 60.0561 293.915 58.2003 288.913C58.2003 288.913 68.6813 294.733 74.766 288.394C75.8586 287.301 76.6911 285.96 77.1979 284.478C77.7047 282.996 77.872 281.413 77.6867 279.852Z" fill="#F7A9A0"/>
<path d="M45.6491 281.189C45.6189 283.017 45.8495 284.841 46.3336 286.6C46.7784 288.365 47.3323 290.099 47.9917 291.791C49.3006 295.21 50.8937 298.504 52.7531 301.638C53.2405 302.476 53.8454 303.234 54.5481 303.888C54.9494 304.265 55.4277 304.545 55.9476 304.706C56.2323 304.8 56.5309 304.843 56.8299 304.832C57.1211 304.811 57.408 304.748 57.6817 304.643C58.634 304.217 59.4173 303.468 59.9027 302.519C60.3393 301.623 60.6175 300.654 60.7241 299.656C60.9023 297.763 60.7634 295.853 60.3134 294.009C59.9284 292.212 59.42 290.446 58.7922 288.724L57.9099 289.494C59.1272 290.14 60.4005 290.667 61.7129 291.067C63.0092 291.444 64.3397 291.681 65.6832 291.775C67.031 291.865 68.3843 291.749 69.6991 291.429C70.9982 291.111 72.2269 290.539 73.3195 289.746C72.1585 290.373 70.9038 290.793 69.6079 290.989C68.3315 291.177 67.0356 291.177 65.7592 290.989C64.4852 290.825 63.2311 290.524 62.0171 290.092C60.803 289.69 59.6309 289.163 58.5184 288.519L57.1493 287.717L57.6361 289.29C58.2089 290.969 58.6664 292.688 59.0052 294.434C59.379 296.125 59.4919 297.866 59.3398 299.593C59.3211 300.363 59.1112 301.114 58.7302 301.775C58.3492 302.437 57.81 302.985 57.1645 303.369C56.0997 303.903 54.8219 302.409 53.9092 300.993C52.9315 299.457 52.0376 297.866 51.2319 296.227C50.3952 294.654 49.589 293.081 48.8588 291.413C47.2848 288.197 46.202 284.748 45.6491 281.189Z" fill="#263238"/>
<path d="M54.1556 280.261C58.0651 282.181 53.6384 285.846 53.6384 285.846C53.6384 285.846 61.2444 282.149 64.5301 285.72C67.8159 289.291 62.2027 293.428 61.8224 293.742C62.2179 293.538 69.2763 290.329 72.2274 294.277C75.1785 298.226 69.0785 301.671 68.683 301.875C69.1089 301.875 74.8894 301.151 76.4715 304.691C79.1944 310.747 64.4693 312.871 61.503 317.275C61.503 317.275 68.2266 323.347 68.3787 323.567C68.5309 323.788 54.4294 325.927 48.8467 321.397C48.0321 320.752 47.451 319.843 47.1971 318.816C46.9432 317.789 47.0313 316.703 47.4472 315.734C47.4472 315.734 43.0357 316.992 40.617 313.956C39.3697 312.383 40.617 308.969 40.617 308.969C39.6025 309.197 38.5469 309.133 37.5652 308.784C36.5835 308.434 35.7133 307.813 35.0495 306.987C33.5283 304.722 35.0495 301.623 35.0495 301.623C35.0495 301.623 31.2465 300.805 30.349 297.942C28.5388 292.232 45.7739 276.187 54.1556 280.261Z" fill="#F7A9A0"/>
<path d="M35.2627 301.15C35.2627 301.15 35.1258 301.15 35.1714 301.15C39.7368 294.153 46.2594 288.763 53.8669 285.703C54.1102 285.609 54.3536 285.986 54.1102 286.128C47.1585 290.167 40.8099 295.227 35.2627 301.15Z" fill="#263238"/>
<path d="M40.5872 309.048C40.5872 309.048 40.4047 309.048 40.4655 308.938C45.5795 301.277 53.1778 295.764 61.8839 293.397C62.1881 293.397 62.5228 293.57 62.1881 293.68C56.3316 295.583 45.6832 303.385 40.5872 309.048Z" fill="#263238"/>
<path d="M69.3521 301.953C60.8639 304.344 53.9881 309.331 47.6143 315.481C47.5383 315.481 47.4318 315.481 47.4926 315.34C49.8048 311.454 54.2619 307.962 57.9432 305.556C61.324 303.246 65.232 301.896 69.2761 301.639C69.489 301.639 69.4891 301.906 69.3521 301.953Z" fill="#263238"/>
<path d="M53.6367 285.845C55.1583 285.276 56.7264 284.849 58.322 284.571C59.841 284.251 61.4144 284.349 62.8856 284.854C63.552 285.127 64.0949 285.649 64.4067 286.317C64.7213 286.992 64.8627 287.74 64.8175 288.488C64.712 289.23 64.4571 289.941 64.0693 290.575C63.6815 291.209 63.1694 291.752 62.5661 292.169L59.7063 294.324L63.1137 293.333C64.6287 292.874 66.2067 292.677 67.7838 292.751C68.5141 292.739 69.2385 292.888 69.9096 293.186C70.5807 293.484 71.1833 293.925 71.678 294.481C72.118 295.011 72.3747 295.678 72.4077 296.376C72.4408 297.073 72.2483 297.763 71.8606 298.335C70.9426 299.585 69.7339 300.576 68.3466 301.214L64.5589 303.101L68.7117 302.598C69.8679 302.441 71.039 302.441 72.1952 302.598C73.3104 302.696 74.3708 303.14 75.2376 303.872C75.6098 304.212 75.8826 304.653 76.025 305.145C76.1675 305.637 76.174 306.161 76.0438 306.656C75.5869 307.722 74.8488 308.632 73.9142 309.283C71.9096 310.699 69.8043 311.956 67.6164 313.043C66.5212 313.641 65.4259 314.223 64.3611 314.868C63.2522 315.449 62.277 316.27 61.5013 317.274C62.377 316.383 63.4097 315.672 64.5436 315.182C65.6541 314.632 66.7798 314.128 67.9055 313.609C70.2209 312.665 72.4422 311.49 74.5379 310.101C75.6515 309.382 76.5393 308.344 77.0935 307.113C77.336 306.393 77.3686 305.616 77.1874 304.878C77.0062 304.139 76.6191 303.472 76.0743 302.96C75.0756 302.052 73.8448 301.463 72.5299 301.261C71.2514 301.056 69.9525 301.025 68.6661 301.166L69.0312 302.551C70.6924 301.83 72.1405 300.668 73.2296 299.184C73.819 298.348 74.1044 297.323 74.0359 296.29C73.9365 295.284 73.55 294.331 72.9254 293.553C72.2955 292.845 71.528 292.283 70.6734 291.904C69.8188 291.524 68.8963 291.336 67.9663 291.351C66.2298 291.302 64.4974 291.552 62.8399 292.09L63.3875 293.238C64.126 292.698 64.7386 291.994 65.1807 291.177C65.6228 290.361 65.8833 289.453 65.9431 288.519C65.9575 287.586 65.7374 286.664 65.3042 285.845C64.8524 285.019 64.1291 284.389 63.2659 284.067C61.635 283.588 59.9072 283.588 58.2763 284.067C56.668 284.471 55.1109 285.067 53.6367 285.845Z" fill="#263238"/>
<path d="M161.094 217.843C161.094 219.18 165.079 228.854 170.738 229.924C172.579 230.27 174.891 219.935 174.891 219.935L175.226 219.227L179.972 209.112L169.673 198.101L168.152 196.607C168.152 196.607 167.026 199.454 165.673 203.025C165.673 203.198 165.536 203.355 165.475 203.544C165.414 203.732 165.307 203.921 165.247 204.11C165.034 204.645 164.821 205.195 164.623 205.683C164.425 206.171 164.319 206.501 164.167 206.942L163.71 208.247C162.633 211.382 161.759 214.588 161.094 217.843Z" fill="#F7A9A0"/>
<path d="M165.688 203.04C166.048 206.292 167.088 209.423 168.735 212.218C170.382 215.013 172.596 217.404 175.225 219.227L179.971 209.112L169.673 198.101L168.152 196.607C168.152 196.607 167.041 199.47 165.688 203.04Z" fill="#263238"/>
<path d="M198.607 195.364C198.211 215.074 186.757 217.056 182.634 216.962C178.907 216.867 166.205 216.096 164.638 196.512C163.072 176.928 172.047 170.808 180.596 170.541C189.145 170.274 199.017 175.638 198.607 195.364Z" fill="#F7A9A0"/>
<path d="M195.748 191.62C195.317 191.527 194.891 191.411 194.471 191.274C194.006 191.224 193.572 191.014 193.238 190.676C193.15 190.554 193.102 190.405 193.102 190.252C193.102 190.099 193.15 189.949 193.238 189.827C193.466 189.622 193.742 189.483 194.038 189.422C194.334 189.361 194.641 189.382 194.927 189.481C195.532 189.603 196.073 189.95 196.448 190.456C196.525 190.577 196.566 190.717 196.568 190.861C196.57 191.005 196.532 191.147 196.458 191.269C196.385 191.392 196.279 191.49 196.153 191.552C196.027 191.614 195.887 191.638 195.748 191.62Z" fill="#263238"/>
<path d="M183.457 191.369C183.898 191.369 184.309 191.211 184.75 191.133C185.222 191.127 185.678 190.955 186.043 190.645C186.132 190.522 186.18 190.373 186.18 190.22C186.18 190.067 186.132 189.918 186.043 189.796C185.835 189.572 185.574 189.409 185.285 189.323C184.997 189.238 184.691 189.232 184.4 189.308C183.813 189.39 183.274 189.686 182.879 190.142C182.793 190.253 182.739 190.388 182.723 190.53C182.708 190.672 182.732 190.816 182.793 190.944C182.853 191.073 182.948 191.181 183.065 191.256C183.183 191.331 183.319 191.37 183.457 191.369Z" fill="#263238"/>
<path d="M186.069 195.82C186.069 195.82 185.963 195.82 185.963 195.946C185.963 197.283 185.78 198.825 184.594 199.249C186.039 199.139 186.297 197.126 186.069 195.82Z" fill="#263238"/>
<path d="M184.932 194.405C182.848 194.184 182.605 198.51 184.536 198.715C186.468 198.919 186.621 194.562 184.932 194.405Z" fill="#263238"/>
<path d="M184.109 194.577C183.729 194.797 183.333 195.206 182.892 195.222C182.451 195.238 182.025 194.766 181.721 194.309H181.645C181.645 195.143 181.842 196.008 182.694 196.181C183.546 196.354 184.078 195.647 184.322 194.829C184.367 194.718 184.261 194.482 184.109 194.577Z" fill="#263238"/>
<path d="M192.706 196.119C192.706 196.119 192.797 196.119 192.797 196.245C192.66 197.582 192.797 199.139 193.877 199.658C192.463 199.422 192.387 197.361 192.706 196.119Z" fill="#263238"/>
<path d="M193.967 194.797C196.051 194.797 195.944 199.108 193.967 199.123C191.989 199.139 192.202 194.813 193.967 194.797Z" fill="#263238"/>
<path d="M194.821 195.112C195.155 195.348 195.475 195.773 195.87 195.805C196.266 195.836 196.677 195.396 196.981 194.955C196.981 195.789 196.692 196.638 195.916 196.78C195.14 196.921 194.714 196.182 194.547 195.348C194.577 195.238 194.699 195.018 194.821 195.112Z" fill="#263238"/>
<path d="M185.28 206.958C185.554 207.304 185.827 207.776 186.284 207.855C186.767 207.9 187.254 207.841 187.714 207.682C187.503 207.927 187.232 208.108 186.929 208.206C186.626 208.303 186.303 208.312 185.995 208.232C185.74 208.132 185.521 207.956 185.363 207.726C185.206 207.497 185.119 207.224 185.113 206.942C185.097 206.927 185.234 206.911 185.28 206.958Z" fill="#263238"/>
<path d="M190.925 202.379C190.925 202.379 191.108 204.393 191.062 205.337C191.062 205.431 190.834 205.462 190.515 205.462C189.724 205.572 188.919 205.454 188.189 205.121C187.459 204.788 186.832 204.253 186.377 203.575C186.377 203.48 186.377 203.386 186.514 203.449C187.64 204.329 189.011 204.81 190.423 204.818C190.499 204.566 190.013 201.373 190.165 201.373C190.87 201.475 191.561 201.671 192.218 201.955C191.96 197.755 191.062 193.617 190.864 189.37C190.864 189.213 191.077 189.181 191.108 189.37C192.212 193.772 192.885 198.278 193.116 202.82C193.131 203.417 191.29 202.552 190.925 202.379Z" fill="#263238"/>
<path d="M190.407 204.991C189.867 205.746 189.149 206.347 188.323 206.737C187.87 206.929 187.371 206.973 186.893 206.863C185.828 206.611 185.783 205.62 185.95 204.771C186.045 204.313 186.193 203.87 186.391 203.449C187.536 204.394 188.944 204.935 190.407 204.991Z" fill="#263238"/>
<path d="M188.323 206.753C187.87 206.945 187.371 206.989 186.893 206.879C185.828 206.628 185.783 205.637 185.95 204.787C186.502 204.79 187.037 204.986 187.468 205.343C187.898 205.7 188.2 206.197 188.323 206.753Z" fill="#FF99BA"/>
<path d="M165.323 197.833C166.583 197.361 167.702 196.557 168.569 195.5C169.436 194.443 170.021 193.171 170.267 191.809C186.407 189.04 190.347 177.871 190.347 177.871C194.636 186.161 197.618 187.31 198.257 188.505C198.257 188.505 198.576 180.64 195.336 175.292C193.545 172.251 190.828 169.913 187.612 168.643C184.396 167.373 180.863 167.244 177.569 168.276C172.701 169.66 169.126 174.71 169.126 174.71C169.126 174.71 163.847 176.078 162.265 180.86C159.634 188.898 165.323 197.833 165.323 197.833Z" fill="#263238"/>
<path d="M190.529 177.164C190.235 179.438 189.398 181.6 188.095 183.456C186.792 185.31 185.154 186.886 183.273 188.097L181.751 188.915C181.265 189.182 180.732 189.371 180.23 189.591C179.214 190.027 178.166 190.38 177.097 190.645C176.032 190.897 174.937 191.038 173.856 191.243C172.776 191.447 171.681 191.384 170.586 191.416C171.666 191.227 172.746 191.086 173.811 190.913C174.876 190.74 175.925 190.441 176.96 190.126C179.031 189.531 181.016 188.653 182.862 187.515C184.693 186.369 186.307 184.887 187.623 183.142C188.99 181.385 189.981 179.347 190.529 177.164Z" fill="#263238"/>
<path d="M164.454 203.717C164.727 203.856 165.012 203.967 165.306 204.048C165.598 204.133 165.9 204.175 166.204 204.173C166.592 204.177 166.977 204.091 167.329 203.922C167.61 203.8 167.872 203.636 168.105 203.434C168.44 203.146 168.723 202.8 168.942 202.412L168.44 197.063C168.44 197.063 164.926 190.472 162.097 191.699C159.267 192.926 161.427 202.144 164.454 203.717Z" fill="#F7A9A0"/>
<path d="M162.784 194.325C162.784 194.325 162.708 194.325 162.784 194.404C163.742 195.042 164.562 195.879 165.19 196.862C165.819 197.845 166.242 198.952 166.435 200.114C166.327 199.873 166.171 199.658 165.977 199.484C165.782 199.311 165.554 199.182 165.307 199.108C165.061 199.033 164.802 199.014 164.547 199.052C164.293 199.09 164.05 199.184 163.833 199.328C163.833 199.328 163.833 199.469 163.833 199.453C164.236 199.37 164.654 199.417 165.03 199.589C165.406 199.761 165.721 200.049 165.933 200.413C166.281 201.026 166.566 201.674 166.785 202.348C166.861 202.552 167.226 202.489 167.18 202.238C167.545 199.28 165.781 194.954 162.784 194.325Z" fill="#263238"/>
<path d="M164.67 202.647C164.69 202.889 164.802 203.112 164.982 203.269C165.161 203.425 165.394 203.501 165.628 203.48C165.862 203.46 166.078 203.343 166.229 203.158C166.381 202.972 166.454 202.731 166.434 202.489C166.411 202.249 166.298 202.027 166.119 201.871C165.94 201.715 165.709 201.638 165.476 201.656C165.36 201.666 165.247 201.699 165.143 201.754C165.04 201.81 164.948 201.885 164.873 201.978C164.798 202.07 164.742 202.176 164.707 202.291C164.672 202.406 164.659 202.527 164.67 202.647Z" fill="white"/>
<path d="M245.917 595.875H239.924L263.989 422.054H276.006L245.917 595.875Z" fill="#A6A6A6"/>
<path d="M790.562 595.875H796.555L772.49 422.054H760.473L790.562 595.875Z" fill="#A6A6A6"/>
<path d="M786.609 550.288H250.07V555.306H786.609V550.288Z" fill="#A6A6A6"/>
<path d="M847.747 402.989H185.725L253.463 339.485H780.023L847.747 402.989Z" fill="#455A64"/>
<path d="M849.996 404.404H183.486L254.222 338.069H779.26L779.686 338.478L849.996 404.404ZM191.32 401.258H842.101L778.089 341.215H255.393L191.32 401.258Z" fill="white"/>
<path d="M847.747 402.989H185.725V422.038H847.747V402.989Z" fill="#263238"/>
<path d="M809.654 367.061H225.775V368.634H809.654V367.061Z" fill="white"/>
<path d="M532.281 394.383H501.188V408.399H532.281V394.383Z" fill="#263238"/>
<path d="M520.064 321.599H513.279V396.193H520.064V321.599Z" fill="#263238"/>
<path d="M202.655 623.482H195.703L223.602 422.054H237.521L202.655 623.482Z" fill="#C7C7C7"/>
<path d="M833.825 623.482H840.777L812.878 422.054H798.959L833.825 623.482Z" fill="#C7C7C7"/>
<path d="M829.263 570.66H207.477V576.48H829.263V570.66Z" fill="#C7C7C7"/>
<path d="M458.912 291.901C461.834 288.863 464.922 286.001 468.161 283.328C471.447 280.701 474.793 278.153 478.246 275.793C492.112 266.271 507.337 259.057 523.365 254.415C527.335 253.173 531.412 252.323 535.534 251.395C537.542 250.908 539.611 250.672 541.619 250.341L547.704 249.429C539.586 251.007 531.562 253.061 523.669 255.58C507.916 260.644 492.855 267.776 478.855 276.8C471.826 281.272 465.157 286.322 458.912 291.901Z" fill="#A6A6A6"/>
<path d="M469.561 289.352C478.584 282.863 488.216 277.329 498.311 272.835C508.383 268.264 518.74 264.397 529.313 261.258C531.945 260.471 534.637 259.842 537.284 259.118L541.285 258.08L545.316 257.199L553.393 255.485C556.101 255.013 558.824 254.588 561.532 254.179C564.239 253.77 566.962 253.298 569.7 253.062L577.9 252.197L579.938 251.993L582.007 251.882L586.114 251.694L594.329 251.332C588.867 251.93 583.406 252.244 577.976 252.905C572.545 253.566 567.084 254.211 561.714 255.327L553.637 256.775L545.62 258.599L541.619 259.512L537.649 260.581C535.002 261.321 532.34 261.966 529.724 262.768C519.2 265.837 508.867 269.567 498.783 273.936L494.995 275.51L491.222 277.35C488.712 278.498 486.278 279.788 483.829 281.047C478.934 283.551 474.171 286.324 469.561 289.352Z" fill="#A6A6A6"/>
<path d="M464.328 298.114C467.279 296.007 470.413 294.166 473.455 292.326C476.498 290.485 479.814 288.881 483.069 287.308C489.578 284.176 496.251 281.424 503.058 279.065C509.872 276.738 516.81 274.816 523.837 273.308C527.336 272.505 530.88 271.955 534.485 271.373C536.25 271.074 538.045 270.917 539.825 270.712L545.164 270.177C538.121 271.451 531.078 272.678 524.157 274.487C517.235 276.296 510.344 278.2 503.59 280.559C496.836 282.919 490.158 285.514 483.602 288.425C477.018 291.304 470.584 294.538 464.328 298.114Z" fill="#A6A6A6"/>
<path d="M451.048 314.019C455.946 314.019 459.917 309.913 459.917 304.848C459.917 299.783 455.946 295.677 451.048 295.677C446.15 295.677 442.18 299.783 442.18 304.848C442.18 309.913 446.15 314.019 451.048 314.019Z" fill="#C53F3F"/>
</svg>
