<svg width="837" height="520" viewBox="0 0 837 520" fill="none" xmlns="http://www.w3.org/2000/svg">
<rect x="231.633" y="223.788" width="70.9067" height="70.9067" rx="1.5" fill="white" stroke="#464444"/>
<rect x="136.607" y="372.738" width="70.9067" height="70.9067" rx="1.5" fill="white" stroke="#464444"/>
<rect x="136.5" y="82.5" width="70.9067" height="70.9067" rx="1.5" fill="white" stroke="#464444"/>
<rect x="0.5" y="0.5" width="70.9067" height="70.9067" rx="1.5" fill="white" stroke="#464444"/>
<rect x="0.5" y="158.5" width="70.9067" height="70.9067" rx="1.5" fill="white" stroke="#464444"/>
<rect x="0.5" y="290.5" width="70.9067" height="70.9067" rx="1.5" fill="white" stroke="#464444"/>
<rect x="0.5" y="448.5" width="70.9067" height="70.9067" rx="1.5" fill="white" stroke="#464444"/>
<line y1="-0.5" x2="92.4515" y2="-0.5" transform="matrix(1 0 0 -1 71.9062 492.939)" stroke="#464444"/>
<line y1="-0.5" x2="46.2258" y2="-0.5" transform="matrix(0 -1 -1 0 164.357 492.939)" stroke="#464444"/>
<line x1="71.9062" y1="325.512" x2="164.358" y2="325.512" stroke="#464444"/>
<line x1="164.857" y1="326.013" x2="164.857" y2="372.238" stroke="#464444"/>
<line x1="72.4072" y1="35.3183" x2="167.501" y2="35.499" stroke="#464444" stroke-linecap="round"/>
<line x1="72.5" y1="199.5" x2="167.5" y2="199.5" stroke="#464444" stroke-linecap="round"/>
<path d="M167 154L167.5 199.5" stroke="#464444" stroke-linecap="round"/>
<line x1="167.5" y1="35.5" x2="167.5" y2="81.5" stroke="#464444" stroke-linecap="round"/>
<line x1="208.014" y1="127.769" x2="269.648" y2="127.769" stroke="#464444"/>
<line x1="270.145" y1="128.269" x2="270.145" y2="223.288" stroke="#464444"/>
<line y1="-0.5" x2="61.6343" y2="-0.5" transform="matrix(1 0 0 -1 208.014 413.327)" stroke="#464444"/>
<line y1="-0.5" x2="118.132" y2="-0.5" transform="matrix(0 -1 -1 0 269.645 413.327)" stroke="#464444"/>
<rect x="-0.5" y="0.5" width="70.9067" height="70.9067" rx="1.5" transform="matrix(-1 0 0 1 700.092 82.0428)" fill="white" stroke="#464444"/>
<rect x="-0.5" y="0.5" width="70.9067" height="70.9067" rx="1.5" transform="matrix(-1 0 0 1 835.906 0)" fill="white" stroke="#464444"/>
<rect x="-0.5" y="0.5" width="70.9067" height="70.9067" rx="1.5" transform="matrix(-1 0 0 1 835.906 158)" fill="white" stroke="#464444"/>
<rect x="-0.5" y="0.5" width="70.9067" height="70.9067" rx="1.5" transform="matrix(-1 0 0 1 835.906 290)" fill="white" stroke="#464444"/>
<rect x="-0.5" y="0.5" width="70.9067" height="70.9067" rx="1.5" transform="matrix(-1 0 0 1 835.906 448)" fill="white" stroke="#464444"/>
<rect x="-0.5" y="0.5" width="70.8969" height="71.5499" rx="1.5" transform="matrix(-1 0 0 1 597.537 222.65)" fill="white" stroke="#464444"/>
<rect x="-0.5" y="0.5" width="120" height="111" rx="1.5" transform="matrix(-1 0 0 1 474 203)" fill="white" stroke="#464444"/>
<rect x="-0.5" y="0.5" width="70.9067" height="70.9067" rx="1.5" transform="matrix(-1 0 0 1 700.092 372.238)" fill="white" stroke="#464444"/>
<line x1="765.297" y1="203.243" x2="672.845" y2="203.243" stroke="#464444"/>
<line x1="672.346" y1="202.743" x2="672.346" y2="156.517" stroke="#464444"/>
<line x1="765.451" y1="486.5" x2="673" y2="486.5" stroke="#464444"/>
<path d="M672.346 487V443.5" stroke="#464444"/>
<line y1="-0.5" x2="92.4515" y2="-0.5" transform="matrix(-1 0 0 1 765.297 326.012)" stroke="#464444"/>
<line y1="-0.5" x2="46.2258" y2="-0.5" transform="matrix(0 1 1 0 672.846 326.012)" stroke="#464444"/>
<line y1="-0.5" x2="92.4515" y2="-0.5" transform="matrix(-1 0 0 1 765.297 35.8174)" stroke="#464444"/>
<line y1="-0.5" x2="46.2258" y2="-0.5" transform="matrix(0 1 1 0 672.846 35.8171)" stroke="#464444"/>
<line y1="-0.5" x2="61.6343" y2="-0.5" transform="matrix(-1 0 0 1 629.186 128.269)" stroke="#464444"/>
<line y1="-0.5" x2="95.0196" y2="-0.5" transform="matrix(0 1 1 0 567.555 128.269)" stroke="#464444"/>
<line x1="629.186" y1="413.827" x2="567.551" y2="413.827" stroke="#464444"/>
<line x1="567.055" y1="413.327" x2="567.055" y2="295.195" stroke="#464444"/>
</svg>
