<svg width="597" height="334" viewBox="0 0 597 334" fill="none" xmlns="http://www.w3.org/2000/svg">
<rect x="132.5" y="131.5" width="70.9067" height="70.9067" rx="1.5" fill="white" stroke="#464444"/>
<rect x="0.5" y="0.5" width="70.9067" height="70.9067" rx="1.5" fill="white" stroke="#464444"/>
<rect x="0.5" y="262.5" width="70.9067" height="70.9067" rx="1.5" fill="white" stroke="#464444"/>
<line x1="72.5009" y1="35.501" x2="167.595" y2="35.6816" stroke="#464444" stroke-linecap="round"/>
<line x1="71.5" y1="297.5" x2="166.5" y2="297.5" stroke="#464444" stroke-linecap="round"/>
<path d="M167 203L168.5 298.5" stroke="#464444" stroke-linecap="round"/>
<line x1="167.505" y1="35.4948" x2="168.495" y2="130.495" stroke="#464444" stroke-linecap="round"/>
<rect x="-0.5" y="0.5" width="70.9067" height="70.9067" rx="1.5" transform="matrix(-1 0 0 1 459.906 131)" fill="white" stroke="#464444"/>
<rect x="-0.5" y="0.5" width="70.9067" height="70.9067" rx="1.5" transform="matrix(-1 0 0 1 595.906 0)" fill="white" stroke="#464444"/>
<rect x="-0.5" y="0.5" width="70.9067" height="70.9067" rx="1.5" transform="matrix(-1 0 0 1 588.906 262)" fill="white" stroke="#464444"/>
<rect x="-0.5" y="0.5" width="120" height="111" rx="1.5" transform="matrix(-1 0 0 1 356 111)" fill="white" stroke="#464444"/>
<line x1="518.451" y1="298.726" x2="426" y2="298.726" stroke="#464444"/>
<line x1="425.502" y1="298.226" x2="425.499" y2="203" stroke="#464444"/>
<line x1="525.293" y1="36.3174" x2="424.996" y2="35.4918" stroke="#464444"/>
<line x1="426.5" y1="36.0053" x2="425.5" y2="131.005" stroke="#464444"/>
</svg>
